<?xml version="1.0" encoding="UTF-8"?>
<svg xmlns="http://www.w3.org/2000/svg" xmlns:xlink="http://www.w3.org/1999/xlink" version="1.1" viewBox="0 0 24.3 23.8">
  <defs>
    <style>
      .cls-1, .cls-2 {
        fill: none;
      }

      .cls-3 {
        fill: #c34069;
      }

      .cls-2 {
        stroke: #c34069;
        stroke-linecap: round;
        stroke-linejoin: round;
      }

      .cls-4 {
        clip-path: url(#clippath);
      }
    </style>
    <clipPath id="clippath">
      <rect class="cls-1" x="5.6" y="5.4" width="13" height="14"/>
    </clipPath>
  </defs>
  <!-- Generator: Adobe Illustrator 28.7.10, SVG Export Plug-In . SVG Version: 1.2.0 Build 236)  -->
  <g>
    <g id="Livello_1">
      <g>
        <path class="cls-2" d="M12.1,22.4c5.8,0,10.5-4.7,10.5-10.5S17.9,1.4,12.1,1.4,1.6,6.1,1.6,11.9s4.7,10.5,10.5,10.5Z"/>
        <g class="cls-4">
          <g>
            <path class="cls-3" d="M11.8,5.4c-1.9.3-1.5,3.4.8,3,1.9-.4,1.5-3.3-.8-3ZM8.9,19.2c.4.4,1.2.3,1.5-.2l1.9-4.6,2,4.8c.5.5,1.4.4,1.6-.3.1-.8-1.2-3.4-1.4-4.4-.2-.6-.6-3-.5-3.5,0-.1.2-.2.4-.2,1-.2,3.1-.3,3.9-.7.8-.4.5-1.6-.5-1.6-1.4,0-3.2.7-4.7.8-.9,0-1.8,0-2.6-.1-.8,0-3.5-.8-4.1-.6-.8.2-.8,1.3,0,1.6.9.4,2.7.4,3.7.7.1,0,.3,0,.4.2,0,1.5,0,3-.4,4.4-.3.8-1.3,2.7-1.2,3.4,0,.1.1.3.2.4Z"/>
            <path class="cls-3" d="M8.9,19.2c0,0-.2-.3-.2-.4-.1-.7.9-2.6,1.2-3.4.5-1.4.5-2.9.4-4.4,0-.2-.3-.2-.4-.2-1-.3-2.8-.3-3.7-.7-.7-.3-.7-1.4,0-1.6.6-.2,3.3.5,4.1.6.8,0,1.8.2,2.6.1,1.5,0,3.4-.7,4.7-.8,1,0,1.3,1.2.5,1.6-.8.4-2.9.5-3.9.7-.1,0-.3,0-.4.2-.2.5.3,2.9.5,3.5.3,1,1.6,3.6,1.4,4.4-.1.7-1.1.8-1.6.3l-2-4.8-1.9,4.6c-.3.5-1,.6-1.5.2h0Z"/>
            <path class="cls-3" d="M11.8,5.4c2.3-.4,2.7,2.6.8,3-2.2.4-2.7-2.6-.8-3Z"/>
          </g>
        </g>
      </g>
    </g>
  </g>
</svg>