<?xml version="1.0" encoding="UTF-8"?>
<svg id="Livello_1" xmlns="http://www.w3.org/2000/svg" xmlns:xlink="http://www.w3.org/1999/xlink" version="1.1" viewBox="0 0 100 100">
  <!-- Generator: Adobe Illustrator 29.8.1, SVG Export Plug-In . SVG Version: 2.1.1 Build 2)  -->
  <defs>
    <style>
      .st0 {
        mask: url(#mask);
      }

      .st1 {
        filter: url(#luminosity-noclip);
      }

      .st2 {
        fill: url(#linear-gradient1);
      }

      .st3 {
        fill: #d1d3d4;
      }

      .st4 {
        fill: url(#Sfumatura_lineare1);
      }

      .st5 {
        fill: url(#linear-gradient);
      }

      .st6 {
        mask: url(#mask-1);
      }

      .st7 {
        fill: #fff;
      }

      .st8 {
        fill: url(#Sfumatura_lineare);
      }
    </style>
    <linearGradient id="Sfumatura_lineare" data-name="Sfumatura lineare" x1="28.79" y1="50.59" x2="75.26" y2="50.59" gradientUnits="userSpaceOnUse">
      <stop offset="0" stop-color="#fff"/>
      <stop offset="1" stop-color="#221f20"/>
    </linearGradient>
    <mask id="mask" x="-5.47" y="-19.53" width="106.34" height="140.26" maskUnits="userSpaceOnUse">
      <rect class="st8" x="-5.47" y="-19.53" width="106.34" height="140.26"/>
    </mask>
    <linearGradient id="linear-gradient" x1="-1.37" y1="70.22" x2="-1.37" y2="155.01" gradientTransform="translate(34.38 -61.48) rotate(-9.22)" gradientUnits="userSpaceOnUse">
      <stop offset="0" stop-color="#da407b"/>
      <stop offset=".25" stop-color="#d73f79"/>
      <stop offset=".4" stop-color="#cf3c74"/>
      <stop offset=".52" stop-color="#c0376b"/>
      <stop offset=".63" stop-color="#ac315e"/>
      <stop offset=".72" stop-color="#92284e"/>
      <stop offset=".81" stop-color="#721e3a"/>
      <stop offset=".9" stop-color="#4c1122"/>
      <stop offset=".98" stop-color="#210307"/>
      <stop offset="1" stop-color="#150000"/>
    </linearGradient>
    <linearGradient id="linear-gradient1" x1="-85.53" y1="134.71" x2="-77.45" y2="184.52" gradientTransform="translate(63.78 -143.05) rotate(-20.25)" gradientUnits="userSpaceOnUse">
      <stop offset="0" stop-color="#fff"/>
      <stop offset=".15" stop-color="#f8e0e9" stop-opacity=".84"/>
      <stop offset=".48" stop-color="#e992b3" stop-opacity=".43"/>
      <stop offset=".81" stop-color="#da407b" stop-opacity="0"/>
    </linearGradient>
    <filter id="luminosity-noclip" x="-17.36" y="-17.56" width="122.79" height="138.27" color-interpolation-filters="sRGB" filterUnits="userSpaceOnUse">
      <feFlood flood-color="#fff" result="bg"/>
      <feBlend in="SourceGraphic" in2="bg"/>
    </filter>
    <linearGradient id="Sfumatura_lineare1" data-name="Sfumatura lineare" x1="-6.42" y1="51.58" x2="59.57" y2="51.58" xlink:href="#Sfumatura_lineare"/>
    <mask id="mask-1" x="-17.36" y="-17.56" width="122.79" height="138.27" maskUnits="userSpaceOnUse">
      <g class="st1">
        <rect class="st4" x="-17.36" y="-17.56" width="122.79" height="138.27"/>
      </g>
    </mask>
  </defs>
  <g class="st0">
    <path class="st3" d="M.59,51.15c0,.13,0,.26,0,.39,0,.25.02.49.03.74,0,.14.01.29.02.43.02.31.04.62.06.93.02.23.04.45.05.67,0,.11.02.22.03.33.12,1.29.29,2.57.51,3.83h-.13l.16.15c.17.97.37,1.94.6,2.9.02.09.04.18.07.27.09.38.19.77.29,1.14.03.1.05.2.08.3.12.43.24.86.37,1.28.01.02.02.05.02.08h0c.12.39.24.77.37,1.16h0l.03.09s0,.01,0,.01c.14.43.3.86.45,1.29.03.08.06.15.08.22.13.36.27.72.41,1.07.03.08.07.17.1.25.14.36.29.71.45,1.06.03.06.06.13.08.19.17.39.35.77.53,1.16,0,.01.01.03.02.05h0c.04.1.09.19.13.29h0s0,.02,0,.02c.18.37.36.74.55,1.1.03.06.06.11.09.17.16.31.32.63.49.94.02.03.03.05.05.08.72,1.33,1.5,2.61,2.34,3.86h0s0,.02,0,.02c.27.39.53.78.81,1.16.01.02.02.03.03.05.28.38.55.76.83,1.13v.02c.32.4.64.81.97,1.22l-.11.11h.2c.23.29.47.57.71.85,0,0,.01.02.02.03.16.2.33.39.5.58.01.02.02.03.04.05.58.66,1.18,1.3,1.8,1.93l-.16.12h.27s.08.08.12.13c.33.33.67.65,1.01.97h0s.03.04.04.05c0,0,.02.02.02.02.34.32.68.63,1.02.94.04.04.08.07.12.11.28.25.57.5.86.74v.06h.07s.07.06.11.1c.02.01.03.03.05.04.16.14.32.26.48.39h0s0,.01,0,.01h0s0,0,0,0l.16.14h0c.53.43,1.08.85,1.63,1.25.05.04.1.07.15.11.01.01.02.02.04.03h0c.12.09.25.19.37.28h0l.12.09s.01,0,.03.02l.05.04h0c.13.09.26.18.39.27.07.05.14.1.22.15.35.24.71.48,1.07.71.03.02.06.05.1.07.8.52,1.61,1.01,2.44,1.48.09.05.18.1.26.15.32.18.65.36.99.54.1.05.19.11.29.15.37.19.74.38,1.12.57.05.02.09.05.13.07.43.21.87.41,1.31.61.06.03.11.05.17.08.37.16.74.32,1.11.48.12.05.23.09.35.14.33.13.66.26.99.39.12.04.23.09.35.13.4.15.8.3,1.21.44.03.01.07.03.11.04.45.15.91.3,1.36.45.1.03.19.05.29.08.36.11.71.21,1.07.31.14.04.27.07.41.11.23.06.47.12.71.19,0,0,0,0,.01,0l.07.02c.07.02.15.03.23.06.12.03.25.06.37.09,1.07.25,2.15.47,3.24.65.06,0,.12.02.18.03.27.04.54.08.81.12.12.02.23.03.35.05.24.03.47.07.71.09.16.02.31.03.46.05,1.22.14,2.45.23,3.69.28.12,0,.25,0,.37.02.16,0,.32,0,.48.01.35,0,.7.01,1.04.01.39,0,.78,0,1.17-.01h.1c1.28-.04,2.55-.12,3.8-.25.35-.03.7-.08,1.05-.12.13-.02.26-.03.4-.05.23-.03.46-.06.7-.1.14-.02.29-.04.44-.06.32-.05.65-.11.97-.16,1.82-.32,3.61-.75,5.36-1.27.07-.02.14-.04.21-.06.25-.08.51-.15.76-.23.03,0,.06-.02.09-.03.81-.26,1.61-.54,2.4-.84.07-.03.14-.05.2-.08.24-.09.49-.19.73-.28.04-.02.09-.04.14-.06.35-.14.69-.29,1.04-.43.06-.03.13-.06.19-.09.34-.15.68-.3,1.02-.46.07-.03.14-.07.22-.11.04-.02.08-.03.12-.05,0,0,0,0,.01,0h0l.07-.03s0,0,0,0c.16-.08.31-.15.47-.23.07-.03.14-.07.21-.1.06-.03.11-.06.17-.09.05-.02.09-.05.14-.07.29-.14.57-.29.86-.44.03-.02.07-.04.1-.06.21-.11.42-.23.62-.34.06-.03.12-.06.17-.09.09-.05.19-.11.28-.16.2-.11.39-.23.59-.34.09-.05.18-.11.27-.15.06-.04.12-.08.19-.11.57-.34,1.14-.7,1.69-1.06.12-.08.23-.15.35-.23.15-.1.29-.2.44-.3.04-.03.07-.05.11-.08.11-.08.21-.15.32-.22.16-.11.32-.22.48-.34.1-.07.19-.14.28-.21.08-.06.16-.12.25-.17.07-.05.14-.11.21-.16.15-.11.29-.22.43-.32.13-.1.26-.2.4-.31.04-.03.07-.06.11-.08.11-.09.21-.17.32-.26.14-.11.28-.23.42-.34.13-.1.26-.21.39-.32.03-.02.06-.05.08-.07.22-.18.43-.36.64-.55.1-.08.19-.16.28-.25.01,0,.02-.02.03-.02,0,0,.02-.02.02-.03,0,0,.01,0,.02-.02.07-.06.14-.12.21-.18.08-.07.16-.14.24-.21.09-.09.19-.17.28-.26.03-.03.06-.05.09-.09.11-.11.23-.21.35-.32.06-.06.12-.11.18-.17.06-.05.11-.11.17-.16.03-.02.05-.05.08-.08.23-.22.45-.44.67-.66.01-.01.03-.02.04-.04h.01s0-.02,0-.02h0s.02-.02.03-.03c.04-.04.07-.08.11-.11,0-.01.02-.03.04-.03.02-.03.05-.06.08-.08.14-.15.29-.29.44-.45.1-.1.19-.2.28-.3.02-.02.04-.05.06-.06h0s.08-.09.12-.13c.1-.11.19-.21.29-.31.09-.1.18-.2.27-.3.11-.12.23-.25.34-.38.06-.07.12-.14.19-.22.04-.05.09-.1.14-.15l.09-.1h0s.03-.04.05-.06c.07-.08.12-.15.19-.22.15-.18.3-.36.45-.54h0s.07-.08.1-.12c.07-.08.13-.16.19-.24.04-.05.08-.11.13-.16.05-.06.1-.12.14-.17.09-.11.18-.22.26-.33.05-.07.1-.14.16-.21.07-.08.13-.17.19-.25.12-.15.24-.31.35-.46.05-.08.11-.15.16-.22.03-.04.06-.09.09-.12.04-.05.08-.11.11-.15.06-.08.12-.16.18-.24.05-.07.1-.14.15-.21h0l.08-.1h0c.04-.05.07-.1.11-.15.09-.13.18-.26.27-.39.1-.15.21-.3.31-.45.12-.18.24-.36.36-.54.13-.2.25-.39.38-.59.1-.16.21-.33.31-.49.09-.14.17-.28.25-.42.1-.17.2-.34.3-.51,1.56-2.68,2.87-5.52,3.92-8.49h0c.14-.39.27-.79.4-1.18h0c.08-.26.16-.52.24-.77.08-.25.15-.5.22-.75.04-.14.08-.28.12-.42.06-.22.12-.45.18-.67.03-.11.06-.23.09-.34h0v-.02s0-.03,0-.04c.08-.33.17-.66.24-.99.02-.09.04-.18.06-.26.06-.28.12-.57.18-.85.03-.13.05-.26.08-.39.05-.25.09-.49.14-.74.02-.12.05-.25.07-.37.06-.36.12-.72.18-1.08,0-.05,0-.08.02-.12.05-.33.1-.66.14-.99.01-.12.02-.23.04-.35.03-.24.06-.48.08-.73,0,0,0-.02,0-.03,0-.02,0-.05,0-.07.01-.11.03-.22.04-.33.03-.29.05-.58.08-.87,0-.02,0-.04,0-.06,0-.07.01-.14.02-.2h0c.03-.36.05-.71.07-1.07,0-.03,0-.06,0-.09,0-.1,0-.2.01-.29.01-.28.02-.55.03-.83,0-.07,0-.14,0-.21,0-.05,0-.1,0-.15,0-.35.01-.71.01-1.07,0-.03,0-.06,0-.09,0-.39,0-.79-.02-1.17,0-.12,0-.24-.01-.36,0-.26-.02-.52-.03-.78,0-.17-.02-.33-.03-.5-.01-.2-.02-.4-.04-.59-.02-.21-.03-.41-.05-.61,0-.11-.02-.21-.03-.31-.04-.45-.08-.9-.13-1.34,0-.06-.02-.12-.02-.19-.03-.26-.06-.52-.1-.79,0-.04,0-.08-.01-.11-.02-.1-.03-.2-.04-.3h0c-.06-.45-.13-.89-.2-1.32,0-.02,0-.05-.01-.07-.05-.26-.09-.51-.14-.76-.01-.08-.03-.15-.04-.23-.15-.78-.32-1.55-.5-2.32-.02-.07-.04-.14-.05-.21-.06-.25-.12-.49-.19-.73-.01-.06-.03-.11-.04-.16-.02-.07-.04-.14-.06-.21,0-.02,0-.03-.01-.04-.08-.3-.17-.6-.26-.9-.01-.03-.02-.07-.03-.11-.03-.09-.06-.19-.08-.28,0,0,0,0,0-.02h0c-.34-1.12-.71-2.21-1.12-3.29-.02-.05-.04-.1-.06-.15-.1-.25-.2-.5-.3-.74-.03-.09-.07-.17-.1-.26-.1-.24-.2-.48-.3-.71-.04-.08-.07-.17-.11-.25-.11-.24-.21-.48-.32-.73,0-.01,0-.02-.01-.03-.24-.53-.49-1.05-.75-1.57-.03-.06-.05-.11-.08-.17h0l-.03-.06h0c-.1-.19-.19-.38-.29-.56-.06-.12-.12-.23-.18-.35-.1-.19-.21-.38-.31-.57-.07-.13-.14-.26-.22-.39-.1-.18-.2-.36-.3-.54-.08-.14-.17-.29-.26-.43-.16-.27-.32-.54-.49-.8-.1-.17-.21-.35-.32-.52-.09-.15-.19-.29-.29-.44-.1-.16-.21-.31-.31-.47-.1-.14-.2-.29-.3-.43-.11-.16-.22-.31-.33-.47-.1-.14-.19-.28-.29-.42-.12-.17-.25-.34-.38-.51-.07-.1-.15-.21-.23-.31h0s-.03-.04-.03-.04c0,0,0,0-.01-.02h0s-.03-.04-.03-.04h0c-1.4-1.87-2.93-3.63-4.57-5.28-.09-.08-.17-.17-.26-.25h0c-.11-.11-.22-.22-.32-.32-1.61-1.56-3.32-3.01-5.13-4.34-1.38-1.01-2.81-1.96-4.29-2.83h0s-.09-.05-.09-.05h0c-.16-.09-.32-.19-.48-.28-.23-.13-.47-.26-.71-.4-.03-.02-.06-.03-.09-.05h0c-1.31-.71-2.64-1.36-4.02-1.95h0c-.11-.05-.21-.1-.32-.14l-.02.05h0l.02-.05c-.42-.17-.84-.34-1.26-.51-.01,0-.03-.01-.05-.02-.18-.07-.36-.14-.54-.21h0s-.02,0-.02,0c-.23-.09-.47-.17-.7-.26h0s-.07-.02-.1-.03c-.05-.02-.1-.04-.16-.06-.27-.09-.55-.19-.83-.28-.01,0-.03,0-.03-.01-1.17-.39-2.36-.73-3.56-1.03h0s-.06-.02-.09-.02c-.03,0-.06-.02-.09-.02-.37-.09-.75-.18-1.13-.26,0,0-.01,0-.02,0-.57-.12-1.14-.25-1.72-.35v.06h0v-.06c-.24-.05-.49-.08-.73-.12-.13-.02-.27-.05-.41-.07-.22-.04-.44-.07-.67-.1-.17-.02-.33-.05-.5-.07-.21-.03-.42-.05-.63-.08-.18-.02-.37-.05-.55-.06-.2-.02-.4-.04-.6-.06-.2-.02-.4-.04-.6-.06-.19-.02-.37-.03-.56-.04-.22-.02-.44-.03-.66-.04-.17,0-.34-.02-.52-.03-.26-.01-.52-.02-.78-.03h-.41c-.4-.02-.8-.03-1.21-.03s-.76,0-1.14.02c-.08,0-.16,0-.24,0-.36,0-.73.02-1.09.04-.07,0-.15,0-.22.01-.32.02-.64.04-.96.06-.07,0-.14,0-.21.01-.35.03-.71.06-1.06.1-.09,0-.17.02-.26.02-.36.04-.72.08-1.07.12h-.01s0,0,0,0c-.1.02-.21.03-.3.04-.97.13-1.94.29-2.89.48-.03,0-.07.01-.1.02-.29.06-.58.12-.87.18-.05.01-.1.02-.15.03h0c-.06.01-.11.03-.17.04-.24.05-.47.11-.71.16h0c-.05.01-.1.02-.15.04-.06.02-.12.03-.19.04-.29.07-.58.15-.87.22-.02,0-.04.01-.06.02-.33.09-.67.18-.99.27h-.09v.03c-.15.05-.3.09-.45.14-.02,0-.04,0-.05.01h-.02s0,0,0,0c-1.33.4-2.65.87-3.93,1.38h0c-.36.15-.72.3-1.09.45-.01,0-.03.02-.04.02-.35.15-.69.31-1.04.46-.02,0-.05.02-.07.03-.34.15-.67.31-1.01.48-.03.01-.05.03-.08.04-.33.16-.66.32-.98.49h0c-2.19,1.14-4.28,2.43-6.26,3.86h0s-.16.12-.16.12h0s0,0,0,0c0,0,0,0-.01.01-.28.2-.56.42-.85.63,0,0-.01.01-.02.02-.28.22-.56.43-.84.65h0s0,.01,0,.01c-.71.56-1.4,1.16-2.08,1.77h-.22l.11.1c-1.31,1.17-2.55,2.42-3.72,3.73h0s-.19.21-.19.21c0,0,0,.01-.01.02-1.02,1.15-1.98,2.34-2.89,3.58-.03.04-.05.07-.08.11-.04.06-.09.12-.13.18l-.02.03h0c-.22.31-.44.61-.65.92-.03.04-.06.09-.09.13-.44.65-.86,1.3-1.27,1.96l-.09-.08v.22c-.08.13-.15.26-.23.38-.04.07-.08.14-.12.2-.05.09-.1.18-.15.26-.02.03-.04.06-.05.09l-.08-.08v.22c-.05.09-.1.18-.15.26-.03.05-.05.09-.07.14h0c-.06.1-.11.2-.17.3-.04.06-.07.13-.1.19-.07.13-.14.26-.21.39-.06.12-.12.23-.18.34-.03.06-.07.12-.1.19-.04.08-.09.17-.13.26-.01.02-.02.04-.03.06,0,0,0,0-.01.02v.02h-.01c-.04.08-.07.15-.11.23-.02.04-.04.08-.06.12-.08.16-.16.32-.24.48-.06.13-.13.26-.19.39-.07.15-.14.29-.21.44-.02.04-.04.09-.06.13-.04.08-.08.17-.11.25-.06.13-.12.26-.17.39h0s-.02.06-.04.1c-.07.16-.14.32-.21.49-.06.13-.11.26-.17.38-.12.29-.24.57-.35.86-.05.13-.1.25-.14.38-.08.21-.16.42-.24.63-.05.12-.09.24-.13.36-.11.3-.21.59-.32.9-.04.12-.08.23-.12.36-.01.02-.02.05-.02.07-.07.21-.14.42-.2.62-.03.11-.07.22-.1.33-.1.31-.19.62-.28.94-.02.09-.05.17-.07.26-.01.04-.02.08-.03.12-.07.24-.13.48-.19.72-.02.1-.05.19-.08.29-.08.32-.16.65-.24.97-.03.11-.05.22-.08.33-.06.27-.12.55-.18.83-.02.08-.03.16-.05.24-.07.34-.13.68-.19,1.02-.02.11-.04.21-.06.31-.05.3-.1.6-.15.9,0,.06-.02.12-.03.19-.05.35-.1.7-.15,1.05-.01.1-.03.2-.04.3-.04.32-.07.65-.11.98,0,.04,0,.08-.01.13-.04.36-.07.73-.1,1.09,0,.09-.02.19-.02.28-.02.36-.05.71-.07,1.06,0,.02,0,.04,0,.07-.02.37-.03.74-.04,1.11,0,.09,0,.19,0,.28-.01.38-.02.75-.02,1.13s0,.74.01,1.11ZM1.9,44.68c-.37.73-.69,1.49-.96,2.26,0-.03,0-.05,0-.07.02-.44.06-.88.1-1.31,0-.08.01-.16.02-.24.02-.23.05-.46.07-.69.01-.1.02-.2.04-.31.05-.45.11-.88.17-1.33,0-.06.02-.12.02-.17.03-.23.07-.45.1-.68.02-.11.04-.22.05-.32.09-.51.18-1,.28-1.5-.02.45-.03.91-.03,1.38,0,.98.04,1.97.13,2.99ZM10.34,20.95c.25-.34.5-.67.75-1-.21.33-.41.66-.61,1.01-.34.38-.67.77-.98,1.17.03-.04.06-.08.08-.12.22-.32.45-.65.68-.96.02-.03.05-.07.07-.1ZM27.42,6.32s.01,0,.02,0c.29-.15.59-.3.89-.45.05-.03.11-.05.16-.08.32-.15.63-.31.96-.45.04-.02.07-.03.1-.05.34-.16.68-.31,1.02-.46.02,0,.03-.01.05-.02.64-.27,1.29-.53,1.95-.78.21-.08.41-.15.62-.23.14-.05.28-.1.42-.15.19-.07.39-.14.59-.2.1-.03.21-.07.31-.1-.62.39-1.25.83-1.87,1.32-1.84.44-3.62,1.02-5.29,1.73.03-.02.06-.05.09-.07ZM44.75,1.14c.07,0,.13-.02.19-.02.37-.03.73-.07,1.1-.1.05,0,.11,0,.16-.02.34-.02.67-.04,1.01-.06.06,0,.13,0,.19-.01.36-.02.73-.03,1.09-.04.08,0,.16,0,.24,0,.37,0,.75-.02,1.13-.02h0c.4,0,.8,0,1.19.02.04,0,.09,0,.13,0-.42.18-.82.37-1.18.59-1.54-.15-3.06-.23-4.56-.23-.62,0-1.24.02-1.86.04.02,0,.05-.02.07-.03.36-.05.72-.09,1.08-.12h0ZM63.11,2.69c.35.1.7.2,1.05.31.04.01.07.02.11.03.38.12.76.24,1.14.37.09.03.18.06.28.09.13.04.26.09.38.13-.56.33-1.17.76-1.85,1.3-2.34-.91-4.69-1.65-7.03-2.22.6-.4,1.23-.72,1.88-.96.04,0,.08.02.12.02.35.06.69.14,1.04.21.07.02.13.03.2.04.41.09.81.19,1.21.28.05.02.1.03.15.04.34.09.69.18,1.03.27.1.03.19.05.29.08ZM84.22,14.97c-.11.55-.31,1.23-.63,2.02-1.83-1.68-3.8-3.27-5.91-4.77l1.27-1.76c1.67,1.23,3.25,2.57,4.75,4,.18.17.35.34.52.51ZM87.68,18.75c.12.15.24.3.37.45.16.2.33.41.49.62.19.24.37.48.55.73-.04.51-.13,1.11-.31,1.82-1.52-1.79-3.18-3.53-4.98-5.19.32-.77.52-1.44.64-1.99.03.03.06.06.09.09,1.09,1.09,2.13,2.24,3.11,3.43h0l.04.05ZM88.98,22.61c.18-.67.29-1.25.34-1.75.18.24.35.48.52.72.05.08.11.15.16.23.19.28.38.55.56.82.03.04.05.08.07.11.45.67.88,1.35,1.29,2.04,0,.02.02.03.02.04.2.34.4.68.6,1.03,0,0,0,.02.02.03.2.34.39.7.58,1.05,0,.15.01.31.01.48,0,.27-.01.55-.04.82-1.23-1.92-2.61-3.8-4.14-5.62ZM97.19,37.16c.06.2.11.42.16.62.02.1.05.19.07.29.06.25.12.49.18.74.01.06.03.12.04.18.15.63.28,1.27.4,1.9,0,.05.02.11.03.17.05.26.09.51.13.77.02.09.03.18.04.26.02.1.03.2.05.31.02.16.05.32.07.48,0,0,0,.02,0,.02-.09.54-.22,1.1-.39,1.69-.61-2.1-1.39-4.2-2.36-6.29.3-.9.51-1.68.66-2.36.07-.32.12-.65.16-.99.11.25.22.49.32.74.02.07.04.14.07.22.03.11.06.22.1.34.06.19.11.39.16.59.03.11.06.21.09.32ZM98.6,44.67c.02.15.03.3.05.45.01.11.02.22.03.33.04.47.08.94.11,1.42,0,.06,0,.11.01.17.01.28.03.55.04.83,0,0,0,.02,0,.03,0,.11,0,.22.01.34-.2-1.05-.45-2.11-.74-3.17.15-.47.27-.92.37-1.36,0,.03,0,.06.01.09.01.11.03.22.04.34.02.18.04.35.06.53ZM98.71,54.27c-.03.34-.06.69-.1,1.03h0c0,.07-.02.14-.02.21-.04.37-.09.74-.14,1.11,0,.05-.01.09-.02.14-.05.39-.11.78-.17,1.17,0,.03,0,.05-.01.08-.07.41-.14.82-.22,1.22,0,0,0,.02,0,.03-.08.42-.17.83-.25,1.24-.02.03-.03.06-.05.09.01-.33.02-.66.02-.99,0-1.32-.08-2.66-.25-4,.54-.97.97-1.92,1.32-2.84,0,.09,0,.17-.02.26-.02.32-.04.64-.06.96,0,.09-.02.19-.03.29ZM92.17,75h0l-.05-.03c-.24.4-.48.8-.73,1.2-.08.14-.17.26-.25.39-.18.28-.36.56-.54.83-.1.15-.2.3-.31.45-.05.08-.12.16-.17.24-.74.8-1.57,1.61-2.5,2.39.7-1.42,1.25-2.9,1.66-4.44,1.39-1.15,2.59-2.32,3.62-3.49-.21.8-.46,1.59-.75,2.35-.01.02-.02.05-.04.06l.05.03ZM87.49,81.64h0l-.04-.04c-.18.22-.36.43-.55.65-.02.03-.05.06-.08.09-.11.13-.22.25-.33.37-.15.17-.3.34-.45.5.47-.7.9-1.42,1.28-2.15.65-.53,1.25-1.07,1.82-1.61-.18.25-.36.48-.55.72-.08.11-.17.22-.25.32-.11.14-.23.28-.34.42-.1.12-.2.25-.3.37-.09.11-.17.2-.26.31l.04.04ZM56.28,98.76v.03c-.11.01-.21.03-.32.04-.35.04-.71.09-1.07.12-.17,0-.35,0-.53,0-.4,0-.8-.02-1.19-.04,1.14-.17,2.25-.41,3.31-.71.39.02.78.03,1.17.03s.79-.01,1.18-.03c-.8.15-1.62.28-2.46.39h-.1s.02.16.02.16ZM37.52,97.62c-.25-.06-.5-.13-.75-.2-.2-.06-.4-.12-.6-.18-.2-.06-.39-.11-.59-.17,0,0,0,0-.01,0-.54-.38-1.04-.82-1.52-1.31.96.22,1.91.39,2.85.51.92.73,1.9,1.38,2.95,1.9-.42-.09-.84-.18-1.26-.28-.12-.03-.25-.06-.37-.09-.23-.06-.45-.11-.68-.17ZM34.08,96.6c-.05-.02-.1-.04-.16-.06-.24-.08-.49-.17-.73-.26-.22-.08-.44-.16-.65-.24-.02,0-.03-.02-.05-.02-.15-.06-.29-.11-.44-.17-.17-.07-.33-.13-.5-.2-.22-.23-.43-.5-.63-.77.89.3,1.78.56,2.66.77.4.43.83.83,1.27,1.2-.26-.08-.51-.17-.77-.26ZM29.79,94.9c-.33-.15-.67-.31-1-.47-.17-.08-.33-.16-.49-.24-.19-.09-.37-.19-.56-.28-.05-.11-.1-.23-.14-.35.97.44,1.93.83,2.9,1.17.16.25.34.48.52.7-.34-.14-.67-.28-1-.43-.08-.04-.15-.07-.23-.1ZM25.12,92.48c-.22-.13-.43-.25-.64-.39,0-.04,0-.08,0-.12.92.52,1.85,1,2.79,1.44.04.11.07.22.12.32-.04-.02-.07-.03-.11-.06-.11-.06-.22-.12-.33-.18h0c-.31-.17-.62-.33-.93-.5-.1-.06-.21-.12-.31-.17-.16-.09-.33-.19-.49-.29h0s-.09-.06-.09-.06ZM20.95,89.74c-.21-.15-.43-.32-.64-.48-.15-.11-.3-.23-.44-.34-.2-.15-.4-.31-.6-.48-.03-.03-.07-.05-.11-.08.71.57,1.44,1.11,2.2,1.64v.02c-.11-.07-.2-.14-.3-.2l-.03.04h0l.03-.04s-.08-.06-.11-.08ZM17.23,86.72c-.21-.19-.41-.37-.61-.56-.06-.06-.12-.11-.17-.16h.05c.74.72,1.53,1.42,2.36,2.1-.01,0-.03-.02-.04-.03-.19-.16-.38-.32-.57-.48-.16-.14-.32-.28-.48-.41-.18-.16-.36-.31-.53-.47ZM15.84,85.42c-.19-.19-.39-.38-.58-.57-.12-.13-.25-.26-.37-.39-.17-.17-.34-.34-.51-.52-.15-.15-.29-.31-.44-.47-.07-.08-.14-.15-.21-.22.1.03.2.06.29.08.68.82,1.42,1.62,2.2,2.4h-.06c-.1-.1-.19-.19-.29-.28l-.04.04h0l.04-.04s-.03-.02-.04-.03ZM12.28,81.59c-.07-.07-.13-.15-.19-.23-.26-.31-.51-.62-.76-.94-.03-.04-.06-.08-.09-.13.26.14.53.27.8.39.52.77,1.09,1.55,1.71,2.31-.12-.04-.23-.08-.35-.12-.12-.13-.24-.27-.36-.4-.2-.23-.4-.47-.6-.7-.05-.06-.1-.12-.15-.18ZM10.17,78.89l-.05.03h0l.05-.03c-.17-.23-.33-.46-.49-.7-.1-.15-.2-.29-.3-.43-.18-.26-.36-.54-.53-.8-.08-.11-.15-.23-.23-.34-.04-.06-.08-.13-.12-.2.57.46,1.18.9,1.81,1.29.43.86.92,1.72,1.47,2.58-.32-.15-.62-.31-.92-.48-.11-.14-.22-.28-.32-.42-.04-.06-.08-.11-.12-.17-.08-.11-.16-.21-.23-.32ZM1.79,59.69c-.04-.22-.09-.44-.13-.67,0-.05-.02-.09-.03-.14.61,1.72,1.4,3.34,2.33,4.87-.04.46-.06.93-.06,1.4,0,.34.01.69.04,1.04-.33-.54-.64-1.08-.92-1.65-.03-.08-.05-.15-.07-.23-.03-.1-.06-.2-.09-.3-.16-.54-.31-1.09-.45-1.64-.05-.19-.1-.38-.15-.57-.06-.25-.12-.49-.17-.74-.05-.21-.1-.43-.14-.64-.05-.24-.1-.48-.15-.73ZM1.02,54.26c-.02-.21-.03-.42-.05-.63-.02-.32-.04-.63-.06-.95,0-.13-.02-.26-.02-.39,0-.26-.02-.52-.03-.77,0-.12,0-.24,0-.36,0-.06,0-.13,0-.19.26,1.16.58,2.32.97,3.5-.22.85-.38,1.72-.48,2.61,0,0,0-.01,0-.01h0c-.12-.81-.21-1.62-.29-2.44-.01-.12-.02-.25-.03-.37ZM93.87,60.67c1.43-1.63,2.55-3.19,3.41-4.69.13,1.22.2,2.43.2,3.62,0,.51-.02,1.02-.04,1.53-.88,1.62-1.99,3.29-3.33,4.93.01-.37.02-.75.02-1.13,0-1.4-.09-2.83-.26-4.26ZM50.05,1.75s0,0,.02-.01c2.15.22,4.32.58,6.52,1.09-.85.65-1.73,1.37-2.63,2.24-2.32-.56-4.63-.96-6.89-1.2,1.13-.94,2.15-1.61,2.99-2.11ZM77.13,12.14c.06.05.13.09.19.14l-1.88,2.62c-2.02-1.42-4.09-2.7-6.18-3.85.78-.93,1.51-1.76,2.17-2.47,1.93,1.07,3.84,2.25,5.71,3.57ZM96.08,35.9h0s-.05,0-.05,0c-.14.6-.32,1.29-.57,2.07-.93-1.96-2.01-3.9-3.23-5.82.29-.68.53-1.33.74-1.96.14-.4.24-.8.31-1.2,1.12,1.81,2.1,3.64,2.94,5.49-.03.49-.1.97-.2,1.42h.05ZM18.63,85.75c.58.56,1.21,1.12,1.87,1.64-.46.26-.9.48-1.32.65-.82-.66-1.6-1.35-2.33-2.05.57-.03,1.16-.11,1.78-.24ZM16.8,83.77c.49.6,1.03,1.18,1.6,1.76-.63.12-1.24.2-1.81.22-.76-.75-1.48-1.51-2.14-2.29.75.17,1.54.27,2.35.32ZM13.09,75.61c.05.54.14,1.08.28,1.63-1.39-.74-2.76-1.59-4.03-2.55-.28-.83-.48-1.65-.62-2.46,1.39,1.26,2.88,2.38,4.38,3.38ZM13.07,75.28c-1.52-1.02-3.02-2.18-4.42-3.47-.11-.72-.16-1.42-.16-2.11v-.09c1.47,1.55,3.03,2.95,4.62,4.21-.03.3-.05.61-.05.92,0,.19,0,.36.02.55ZM83.98,69.21c.5-.35,1-.7,1.5-1.07,1.52-1.12,2.89-2.21,4.11-3.27.2,1.44.3,2.86.3,4.26,0,.43-.01.87-.03,1.31-1.65,1.44-3.53,2.83-5.66,4.14.02-.48.04-.96.04-1.45,0-1.29-.09-2.59-.26-3.91ZM37.65,92.83c1.52,1.15,3.18,2.25,4.96,3.2-.82.11-1.68.17-2.56.18-1.46-.96-2.81-2.05-4.05-3.21.57-.03,1.11-.08,1.64-.17ZM39.81,12.01c-1.05,1.67-2.12,3.58-3.19,5.78-2-.24-3.97-.36-5.89-.36-.19,0-.37,0-.56,0,.97-2.15,1.95-4.03,2.91-5.67.53-.02,1.06-.03,1.6-.03,1.68,0,3.39.09,5.13.28ZM27.98,83.86c.56,1.27,1.47,3.14,2.72,5.16-.32-.03-.64-.06-.97-.11-.12-.28-.24-.56-.35-.83-.65-1.63-1.11-3.13-1.41-4.21ZM25.45,87.49c.57-1.73,1.26-3.38,1.68-4.36-.16,1.09-.39,2.95-.44,4.93-.42-.17-.83-.36-1.25-.57ZM26.49,83.2l-2.56,3.4c-.29-.19-.57-.39-.84-.6,1.29-.94,2.53-2.02,3.4-2.8ZM18.18,78.27c-1.57-.8-3.21-1.73-4.84-2.81-.02-.25-.03-.49-.03-.73h0c0-.24.01-.48.04-.72,1.65,1.3,3.31,2.45,4.89,3.44-.03.25-.05.5-.05.75v.07ZM70.11,76.61c2.36-.94,4.73-2.03,7.08-3.27.18,1.28.28,2.55.28,3.8,0,.29,0,.59-.02.88-2.34,1-4.68,1.86-7,2.58v-.09c0-1.27-.11-2.57-.33-3.89ZM34.66,88.7c.25-.11.49-.23.72-.36,1.65,1.05,3.52,2.14,5.57,3.16-.45.24-.93.44-1.44.61-1.08-.68-2.11-1.37-3.08-2.07-.62-.45-1.21-.9-1.78-1.34ZM28.72,84.1c.99,1.23,2.47,2.95,4.37,4.8-.27.05-.53.09-.81.11-1.42-1.73-2.56-3.35-3.36-4.59-.07-.11-.14-.22-.2-.32ZM31.43,89.05c-.14,0-.28,0-.41-.01-.03-.05-.05-.08-.08-.13-1.12-1.81-1.97-3.5-2.54-4.74-.06-.11-.11-.23-.15-.33.79,1.26,2.05,3.16,3.72,5.19-.18.02-.36.02-.54.02ZM35.62,88.19c.21-.14.42-.29.6-.46,1.84.95,3.9,1.92,6.15,2.83-.35.29-.74.56-1.15.8-1.51-.75-2.92-1.53-4.22-2.31-.47-.28-.93-.57-1.38-.85ZM29.31,83.98c1.34,1.1,3.33,2.61,5.82,4.2-.22.12-.46.23-.7.33-1.84-1.45-3.36-2.83-4.51-3.94-.22-.21-.42-.41-.61-.6ZM18.81,49.85c-1.11.14-2.19.36-3.22.64-.44-2.7-.75-5.53-.88-8.44,1.25-.38,2.57-.68,3.93-.88-.03.94-.05,1.87-.05,2.79,0,2,.08,3.97.22,5.88ZM82.2,45.98c-1.35-2-2.87-3.95-4.54-5.87,1.54-1.81,2.91-3.5,4.13-5.09,1.68,2.01,3.19,4.09,4.53,6.22-1.16,1.47-2.52,3.04-4.12,4.74ZM29.45,83.75c1.5,1,3.74,2.39,6.52,3.84-.19.16-.38.31-.59.44-2.19-1.4-4-2.75-5.32-3.8-.21-.17-.42-.33-.6-.49ZM30.96,33.03c-.78,2.72-1.44,5.37-1.99,7.95-1.78-.26-3.54-.39-5.24-.41.31-2.6.75-5.24,1.34-7.9h.34c1.81,0,3.66.12,5.55.36ZM29.75,83.64c1.61.86,3.98,2.03,6.93,3.23-.15.19-.32.38-.5.55-2.42-1.26-4.43-2.47-5.91-3.43-.18-.12-.36-.24-.53-.35ZM27.73,73.44c-.26,3.12-.33,5.49-.34,6.96-.09-.65-.2-1.47-.31-2.46-.15-1.3-.29-2.89-.4-4.74.35.06.7.14,1.05.23ZM37.08,86.75s.03-.05.05-.07c.1-.16.2-.33.28-.5,2.06.62,4.39,1.23,6.94,1.75-.15.34-.32.67-.53.99-.03.05-.06.09-.1.14-2.21-.66-4.25-1.38-6.09-2.1-.18-.08-.37-.15-.55-.22ZM24.91,79.68c-1.34-1.23-3.07-2.93-4.98-5.04.16-.15.32-.28.5-.41,1.84,2.45,3.52,4.38,4.78,5.72-.1-.09-.2-.18-.3-.27ZM19.76,74.44c-1.35-1.51-2.78-3.22-4.21-5.12.3-.29.63-.54.98-.78,1.26,2.04,2.53,3.87,3.74,5.48-.18.13-.36.27-.52.42ZM44.97,84.83c0,.4-.03.79-.09,1.18-2.59-.28-4.96-.66-7.06-1.08.06-.31.09-.63.1-.95,2.11.2,4.47.34,7.04.38,0,.16.01.31.01.47ZM26.23,67.1c0,2.13.07,4.07.17,5.8-.38-.06-.76-.1-1.13-.12-.36-1.77-.72-3.76-1.04-5.93.65.05,1.32.13,2,.25ZM24.68,72.76h0c-.28,0-.55.01-.82.03-.61-1.78-1.24-3.77-1.83-5.96.32-.02.65-.03.98-.03s.64.01.96.03c.32,2.17.67,4.16,1.04,5.93-.11,0-.22,0-.33,0ZM21.76,66.85c.59,2.19,1.22,4.19,1.83,5.97-.32.03-.64.09-.95.16-.83-1.75-1.68-3.73-2.52-5.9.53-.11,1.07-.19,1.64-.23ZM21.61,58.67c.48,0,.98.02,1.48.05.19,2.8.49,5.44.84,7.86-.31-.02-.62-.03-.93-.03-.36,0-.7.02-1.05.04-.65-2.41-1.26-5.05-1.76-7.87.46-.03.93-.05,1.41-.05ZM29.61,59.94c-.51,2.66-.9,5.13-1.21,7.39-.64-.18-1.28-.32-1.91-.44v-.27c0-2.27.07-4.75.23-7.41.95.2,1.92.44,2.88.73ZM26.23,66.84c-.69-.12-1.37-.2-2.03-.25-.35-2.42-.65-5.06-.85-7.86,1.02.08,2.06.22,3.12.42-.17,2.67-.23,5.17-.23,7.46v.22ZM52.58,81.46c.2.81.34,1.62.42,2.4-2.32.18-4.56.25-6.66.25h0c-.39,0-.76,0-1.13,0-.04-.55-.13-1.11-.26-1.68,2.4-.21,4.96-.51,7.64-.96ZM29.31,81.98c1.58-.31,4.1-.85,7.33-1.77.18.34.34.68.47,1-1.62.22-3.08.39-4.35.51-1.41.13-2.57.21-3.45.26ZM50.39,49.85l-5.28,7.38c-.18-.12-.35-.24-.53-.35-1.13-.74-2.29-1.43-3.44-2.06,1.36-2.48,2.83-5.11,4.43-7.9,1.4.76,2.79,1.59,4.16,2.49.23.15.45.3.68.45ZM52.89,64.16c-2.45,2.07-4.77,3.95-6.94,5.62-.83-.87-1.72-1.71-2.68-2.53,1.9-1.94,3.95-4.08,6.14-6.43,1.25,1.07,2.41,2.19,3.48,3.33ZM45.92,70.13c.78.82,1.5,1.67,2.16,2.52-2.27,1.28-4.41,2.42-6.39,3.41-.46-.58-.96-1.15-1.49-1.7,1.76-1.25,3.67-2.66,5.72-4.23ZM50.15,75.2c-.51-.83-1.07-1.65-1.69-2.47,2.42-1.38,4.99-2.94,7.64-4.68.81,1.12,1.54,2.26,2.18,3.4-2.83,1.43-5.55,2.67-8.14,3.75ZM50.04,75.52c.55.92,1.03,1.84,1.43,2.76-1.77.48-3.49.9-5.14,1.27-.75.17-1.49.32-2.21.47-.28-.63-.61-1.25-.98-1.87,2.15-.74,4.46-1.62,6.9-2.63ZM48.24,72.86c.61.8,1.17,1.62,1.67,2.44-2.44,1.02-4.75,1.88-6.9,2.63-.35-.56-.73-1.11-1.15-1.66,1.98-1,4.12-2.13,6.39-3.41ZM48.31,72.52c-.67-.86-1.39-1.72-2.18-2.55,2.17-1.68,4.49-3.55,6.94-5.62,1.05,1.14,2.01,2.3,2.89,3.49-2.66,1.74-5.22,3.3-7.65,4.68ZM44.96,57.43l-5.14,7.18s-.04-.03-.06-.04c-.95-.65-1.92-1.24-2.89-1.78,1.24-2.38,2.61-4.97,4.14-7.75,1.15.63,2.3,1.31,3.42,2.04l.03-.04h0l-.03.04c.18.12.35.23.53.35ZM40.03,64.76l5.14-7.18c1.43.97,2.78,1.99,4.04,3.07-2.2,2.35-4.25,4.49-6.15,6.43-.96-.8-1.97-1.58-3.04-2.32ZM40.78,54.92c-1.52,2.78-2.9,5.37-4.13,7.75-1.11-.61-2.22-1.16-3.33-1.64.88-2.53,1.9-5.26,3.06-8.18,1.47.6,2.94,1.29,4.4,2.07ZM39.88,64.97c1.06.73,2.06,1.5,3.01,2.3-1.8,1.84-3.47,3.51-4.99,5-.67-.54-1.39-1.06-2.14-1.56l4.11-5.74ZM43.09,67.44c.95.81,1.83,1.64,2.66,2.5-2.06,1.59-3.97,2.99-5.73,4.24-.59-.6-1.23-1.18-1.91-1.74,1.51-1.49,3.18-3.16,4.98-5ZM42.9,78.24c.37.61.69,1.22.97,1.84-2.35.47-4.53.83-6.48,1.1-.14-.35-.3-.7-.48-1.04,1.8-.51,3.81-1.14,5.99-1.89ZM43.97,80.32c.27.63.48,1.25.64,1.87-2.48.21-4.77.3-6.83.33-.07-.37-.18-.73-.31-1.1,1.96-.27,4.14-.63,6.49-1.1ZM51.58,78.52c.39.9.7,1.8.94,2.69-2.68.45-5.24.76-7.64.96-.16-.63-.38-1.26-.65-1.9,2.31-.47,4.78-1.04,7.35-1.74ZM51.73,78.21c-.41-.93-.89-1.86-1.44-2.79,2.58-1.08,5.31-2.33,8.13-3.75.7,1.27,1.29,2.55,1.78,3.82-2.9,1.08-5.74,1.98-8.46,2.73ZM58.52,71.33c-.64-1.16-1.38-2.3-2.2-3.43,2.4-1.58,4.88-3.31,7.4-5.2,1,1.41,1.89,2.84,2.67,4.28-2.68,1.61-5.31,3.06-7.87,4.36ZM56.18,67.69c-.88-1.19-1.85-2.37-2.91-3.51,2.17-1.84,4.44-3.84,6.8-6.01,1.28,1.4,2.46,2.85,3.51,4.32-2.53,1.9-5,3.63-7.4,5.2ZM53.09,63.99c-1.08-1.16-2.25-2.28-3.51-3.36,1.94-2.07,3.99-4.3,6.14-6.69,1.5,1.3,2.89,2.65,4.17,4.04-2.36,2.17-4.63,4.17-6.8,6.01ZM49.39,60.46c-1.27-1.08-2.63-2.11-4.06-3.09l5.28-7.37c1.74,1.19,3.38,2.45,4.92,3.77-2.15,2.39-4.2,4.62-6.14,6.69ZM40.9,54.69c-1.47-.79-2.95-1.48-4.43-2.08,1.05-2.62,2.23-5.4,3.53-8.32,1.78.72,3.56,1.55,5.32,2.5-1.6,2.79-3.07,5.42-4.43,7.9ZM31.89,51.03c.72-2.76,1.56-5.65,2.54-8.63,1.77.49,3.55,1.08,5.34,1.79-1.31,2.92-2.48,5.69-3.53,8.32-1.45-.58-2.91-1.08-4.34-1.48ZM36.14,52.75c-1.16,2.92-2.18,5.65-3.06,8.18-1.06-.45-2.12-.84-3.17-1.17.51-2.65,1.15-5.5,1.92-8.49,1.43.41,2.87.9,4.31,1.47ZM33.23,61.28c1.1.48,2.2,1.02,3.29,1.62-1.21,2.33-2.29,4.45-3.23,6.38-.77-.4-1.54-.76-2.31-1.07.63-2.1,1.37-4.41,2.25-6.93ZM36.75,63.02c.96.54,1.92,1.13,2.86,1.76.02.02.04.03.06.04l-4.12,5.75c-.12-.08-.23-.15-.35-.23-.55-.34-1.11-.66-1.67-.95.95-1.92,2.02-4.05,3.23-6.37ZM41.62,76.39c.42.54.8,1.08,1.14,1.63-.08.02-.16.05-.23.08-2.09.71-4.02,1.31-5.74,1.8-.18-.32-.38-.64-.6-.96,1.64-.72,3.46-1.57,5.44-2.56ZM44.67,82.44c.13.56.22,1.11.27,1.65-2.56-.04-4.92-.18-7.02-.37,0-.31-.04-.62-.09-.94,2.06-.03,4.36-.12,6.84-.34ZM73.53,62.34c-2.32,1.62-4.63,3.12-6.91,4.49-.78-1.45-1.68-2.89-2.68-4.3,2.16-1.62,4.35-3.37,6.56-5.23,1.14,1.66,2.16,3.34,3.03,5.04ZM63.79,62.33c-1.06-1.48-2.24-2.93-3.53-4.34,1.18-1.08,2.38-2.21,3.59-3.38.88-.84,1.72-1.67,2.55-2.48,1.45,1.61,2.76,3.27,3.95,4.96-2.21,1.87-4.4,3.61-6.56,5.24ZM50.54,49.64c-.22-.15-.45-.31-.68-.46-1.38-.9-2.77-1.73-4.17-2.49.88-1.54,1.8-3.12,2.75-4.75.52-.88,1.04-1.76,1.55-2.61,1.58.85,3.15,1.78,4.7,2.8.28.19.56.37.83.56l-4.98,6.96ZM32.99,61.17c-.88,2.52-1.62,4.84-2.25,6.94-.7-.28-1.39-.51-2.09-.71.3-2.26.7-4.73,1.2-7.38,1.04.33,2.09.71,3.13,1.15ZM26.74,58.95c.17-2.7.45-5.58.86-8.61,1.31.22,2.63.51,3.97.87-.77,2.99-1.4,5.82-1.92,8.47-.98-.3-1.96-.54-2.92-.74ZM33.41,69.62c.55.29,1.1.6,1.64.94.12.07.23.15.35.22l-3.16,4.41c-.1-.07-.21-.14-.31-.2-.28-.18-.57-.34-.86-.5.67-1.43,1.45-3.06,2.35-4.88ZM35.62,70.92c.74.48,1.44.99,2.1,1.53-.71.7-1.39,1.36-2.03,1.98-.69.67-1.35,1.29-1.96,1.87-.4-.34-.83-.66-1.27-.96l3.17-4.41ZM37.92,72.62c.67.55,1.3,1.12,1.88,1.71-.77.54-1.52,1.06-2.23,1.54-.9.61-1.74,1.17-2.53,1.68-.35-.37-.72-.73-1.12-1.08,1.18-1.12,2.52-2.4,4-3.85ZM39.98,74.51c.53.54,1.02,1.1,1.47,1.67-.12.06-.25.12-.37.18-1.84.91-3.54,1.69-5.06,2.36-.25-.34-.51-.67-.81-.99,1.42-.92,3.02-1.99,4.77-3.23ZM37.21,81.46c.13.36.23.72.31,1.07-.36,0-.71,0-1.05,0-3.18,0-5.67-.15-7.23-.29,1.68-.09,4.45-.3,7.96-.78ZM36.47,82.79h.08c.33,0,.67,0,1.01,0,.05.31.08.62.09.91-1.87-.18-3.54-.4-4.95-.62-1.26-.2-2.32-.39-3.15-.56,1.57.13,3.94.26,6.91.26ZM52.77,81.16c-.24-.9-.56-1.8-.94-2.71,2.72-.76,5.56-1.65,8.45-2.73.44,1.2.78,2.39,1.01,3.56-2.92.8-5.78,1.41-8.53,1.87ZM60.44,75.4c-.49-1.28-1.09-2.57-1.79-3.84,2.56-1.3,5.19-2.74,7.87-4.35.83,1.56,1.52,3.13,2.07,4.69-2.73,1.33-5.46,2.49-8.15,3.5ZM58.64,50.28c-1,1.13-1.98,2.22-2.94,3.3-1.54-1.33-3.19-2.59-4.94-3.79l4.98-6.95c1.99,1.36,3.87,2.82,5.61,4.34-.88,1.02-1.79,2.05-2.72,3.11ZM48.21,41.81c-.96,1.63-1.87,3.21-2.76,4.75-1.77-.95-3.56-1.79-5.34-2.51.8-1.78,1.65-3.61,2.55-5.5.35-.74.7-1.45,1.05-2.16,2.02.8,4.04,1.74,6.04,2.81-.51.85-1.03,1.72-1.55,2.61ZM42.43,38.45c-.91,1.89-1.76,3.73-2.56,5.51-1.79-.72-3.59-1.32-5.37-1.81.84-2.55,1.78-5.17,2.84-7.86,2.03.54,4.09,1.21,6.13,2.01-.35.71-.69,1.42-1.04,2.15ZM29.23,41.03c.56-2.59,1.22-5.24,2-7.96,1.93.26,3.89.64,5.86,1.15-1.06,2.69-2,5.31-2.84,7.86-1.69-.45-3.37-.81-5.02-1.06ZM34.17,42.33c-.98,2.99-1.82,5.87-2.54,8.63-1.35-.37-2.69-.66-4-.88.39-2.82.89-5.76,1.54-8.8,1.64.24,3.31.6,4.99,1.05ZM26.48,58.9c-1.07-.21-2.12-.35-3.15-.42-.15-2.22-.24-4.53-.24-6.93,0-.54,0-1.1.02-1.65,1.38.04,2.79.17,4.24.4-.41,3.02-.69,5.9-.86,8.6ZM20.02,66.84c-.9-2.36-1.77-4.96-2.54-7.74.78-.17,1.6-.29,2.45-.36.5,2.81,1.11,5.45,1.75,7.86-.57.05-1.13.13-1.66.24ZM19.86,67.14c.84,2.17,1.69,4.15,2.52,5.91-.32.08-.63.19-.93.32-1.03-1.69-2.1-3.61-3.16-5.74.5-.19,1.02-.35,1.57-.48ZM18.18,67.39c-1.12-2.27-2.21-4.77-3.21-7.49.71-.31,1.47-.56,2.27-.75.77,2.78,1.64,5.37,2.54,7.74-.56.13-1.09.29-1.59.49ZM21.21,73.47c-.25.12-.49.25-.71.4-1.2-1.61-2.47-3.44-3.73-5.48.4-.25.83-.48,1.29-.67,1.06,2.13,2.13,4.06,3.16,5.76ZM28.36,67.58c-.27,2.06-.47,3.93-.61,5.6-.36-.09-.73-.17-1.09-.24-.1-1.72-.16-3.67-.18-5.79.62.11,1.24.26,1.87.43ZM28.62,67.66c.68.2,1.36.43,2.05.7-.58,1.96-1.07,3.73-1.47,5.28-.4-.14-.79-.28-1.19-.39.14-1.67.34-3.54.61-5.59ZM30.91,68.45c.76.31,1.52.65,2.27,1.04-.9,1.82-1.68,3.44-2.35,4.88-.46-.23-.93-.45-1.39-.63.4-1.57.89-3.33,1.47-5.29ZM31.78,75.22c.1.06.2.12.3.19l-3.94,5.57c.19-.43.42-.94.65-1.45.52-1.2,1.24-2.81,2.17-4.79.28.15.55.31.83.48ZM29.13,81.75c1.45-.5,3.79-1.37,6.8-2.7.21.3.41.61.58.92-1.93.54-3.6.96-4.97,1.27-.96.22-1.77.38-2.41.51ZM37.66,83.96c0,.31-.04.62-.09.93-1.01-.2-1.96-.42-2.84-.63-2.25-.54-4.05-1.08-5.28-1.5,1.77.36,4.61.85,8.22,1.2ZM29.87,83.17c1.75.56,4.36,1.3,7.64,1.96-.06.25-.14.49-.24.73-.29-.09-.58-.18-.87-.27-2.77-.88-4.99-1.76-6.53-2.42ZM37.15,86.11c-.07.15-.16.29-.25.44-.02.03-.05.07-.07.1-2.73-1.1-4.96-2.18-6.56-3.02,1.67.7,4.01,1.6,6.88,2.48ZM37.52,85.94c.1-.25.19-.5.25-.76,2.11.42,4.48.8,7.08,1.08-.09.49-.22.97-.4,1.42-2.54-.51-4.87-1.12-6.93-1.74ZM45.22,84.36c.37,0,.74,0,1.11,0,2.12,0,4.36-.08,6.69-.25.03.36.05.7.05,1.05,0,.44-.02.86-.07,1.29-2.78-.01-5.41-.17-7.85-.42.06-.4.09-.8.09-1.21,0-.16,0-.31-.01-.46ZM61.35,79.54c.2,1.09.32,2.16.34,3.2-2.9.54-5.73.88-8.43,1.1-.08-.79-.22-1.61-.42-2.42,2.74-.46,5.6-1.08,8.51-1.87ZM73.65,62.58c.89,1.76,1.64,3.54,2.22,5.3-2.32,1.45-4.68,2.74-7.04,3.9-.56-1.57-1.26-3.15-2.09-4.72,2.27-1.37,4.58-2.87,6.91-4.49ZM70.7,57.14c.51-.43,1.02-.87,1.53-1.31,1.65-1.44,3.17-2.81,4.57-4.12,1.25,1.88,2.34,3.79,3.27,5.71-1.2.99-2.5,1.99-3.89,3.02-.82.6-1.63,1.19-2.44,1.76-.88-1.7-1.9-3.39-3.05-5.05ZM72.06,55.63c-.5.43-1,.86-1.51,1.29-1.18-1.69-2.51-3.35-3.96-4.97,2.09-2.07,4.02-4.06,5.81-5.97,1.57,1.79,2.98,3.63,4.25,5.51-1.41,1.31-2.93,2.69-4.59,4.14ZM63.67,54.43c-1.22,1.17-2.41,2.29-3.59,3.37-1.29-1.4-2.69-2.76-4.19-4.06.96-1.07,1.94-2.17,2.94-3.3.93-1.05,1.83-2.08,2.71-3.1,1.68,1.48,3.24,3.01,4.68,4.6-.83.82-1.68,1.65-2.56,2.49ZM55.68,42.48c-.28-.19-.56-.37-.84-.56-1.55-1.02-3.13-1.96-4.71-2.82,1.51-2.52,2.99-4.93,4.43-7.21,1.7.91,3.38,1.91,5.04,3,.35.23.69.46,1.03.69l-4.94,6.89ZM43.84,36.16c1.3-2.64,2.58-5.12,3.84-7.44,2.23.87,4.44,1.88,6.64,3.05-1.43,2.28-2.91,4.68-4.43,7.21-2.01-1.07-4.03-2.01-6.06-2.82ZM23.11,49.65c.06-2.85.24-5.8.59-8.81,1.69.01,3.44.15,5.21.4-.65,3.04-1.15,5.99-1.54,8.8-1.45-.23-2.88-.36-4.27-.4ZM22.28,49.89c.19,0,.37,0,.56,0-.01.56-.02,1.1-.02,1.65,0,2.39.09,4.7.24,6.91-.49-.03-.98-.05-1.46-.05s-.98.02-1.45.05c-.47-2.65-.84-5.46-1.06-8.38,1.03-.12,2.1-.19,3.19-.19ZM17.41,58.85c-.7-2.55-1.31-5.26-1.78-8.1,1.02-.28,2.09-.49,3.2-.63.22,2.92.6,5.73,1.06,8.37-.86.07-1.68.19-2.48.37ZM16.62,68.17c-1.32-2.14-2.62-4.5-3.83-7.07.6-.42,1.24-.79,1.93-1.09,1,2.71,2.09,5.21,3.21,7.48-.46.19-.9.42-1.31.68ZM14.5,70.58c.25-.39.55-.75.87-1.08,1.43,1.9,2.86,3.62,4.21,5.12-.18.19-.35.39-.5.6-1.47-1.36-3.03-2.92-4.58-4.65ZM24.72,79.96c-1.46-1.1-3.37-2.64-5.45-4.55.14-.21.3-.4.48-.59,2.22,2.47,4.21,4.36,5.61,5.62-.2-.15-.42-.31-.65-.48ZM24.84,79.17c-1.17-1.29-2.62-3-4.19-5.09.22-.14.45-.27.69-.39,1.73,2.85,3.32,5.04,4.44,6.49-.28-.3-.6-.64-.94-1.02ZM22.49,73.29c1.52,3.21,2.91,5.65,3.83,7.16-.35-.44-.76-.97-1.21-1.58-1-1.36-2.22-3.13-3.53-5.27.29-.12.59-.23.91-.31ZM23.67,73.07c1.09,3.16,2.13,5.62,2.84,7.18-.26-.43-.56-.93-.89-1.51-.82-1.43-1.81-3.29-2.87-5.52.3-.07.61-.12.92-.15ZM24.68,73.02c.12,0,.25,0,.38,0,.68,3.32,1.38,5.87,1.83,7.43-.18-.39-.38-.84-.6-1.35-.65-1.51-1.48-3.57-2.35-6.06.24-.02.49-.03.74-.03ZM26.42,73.16c.19,3.18.48,5.61.7,7.14-.05-.18-.11-.36-.16-.56-.44-1.56-1.04-3.84-1.63-6.7.36.02.72.06,1.09.12ZM29.13,73.9c-.78,3.07-1.24,5.34-1.48,6.7,0-1.44.06-3.86.33-7.08.38.11.76.23,1.15.38ZM28.21,79.11c.26-1.31.64-3.02,1.17-5.11.45.18.9.39,1.35.62-1.38,2.95-2.34,5.12-2.87,6.36.08-.48.2-1.1.35-1.87ZM32.3,75.55c.44.29.85.6,1.24.93-1.68,1.59-3.05,2.83-4.06,3.74-.5.44-.91.8-1.24,1.09l4.07-5.76ZM33.73,76.65c.39.33.75.68,1.09,1.04-1.95,1.26-3.55,2.22-4.77,2.91-.72.42-1.29.73-1.7.95.95-.83,2.76-2.43,5.38-4.9ZM34.99,77.89c.28.31.54.63.78.95-1.81.79-3.38,1.43-4.65,1.91-.92.35-1.68.62-2.27.82,1.26-.68,3.35-1.88,6.14-3.69ZM52.96,86.72c-.09.74-.26,1.45-.49,2.14-2.75-.25-5.35-.65-7.76-1.12.18-.46.31-.95.4-1.45,2.44.26,5.08.42,7.86.43ZM61.55,79.22c-.24-1.18-.58-2.38-1.02-3.58,2.69-1,5.42-2.16,8.15-3.49.5,1.45.88,2.89,1.14,4.31-2.78,1.1-5.55,2.02-8.26,2.76ZM76.34,60.65c1.38-1.02,2.66-2.02,3.85-2.99.9,1.88,1.65,3.78,2.23,5.67-2.06,1.61-4.17,3.07-6.32,4.41-.59-1.77-1.34-3.55-2.24-5.31.82-.58,1.65-1.17,2.47-1.78ZM80.28,57.25c-.94-1.93-2.04-3.84-3.29-5.72,1.95-1.83,3.66-3.53,5.18-5.13,1.33,1.98,2.49,4,3.49,6.03-1.55,1.53-3.33,3.14-5.38,4.83ZM76.85,51.31c-1.27-1.88-2.69-3.73-4.26-5.52,1.79-1.91,3.42-3.74,4.91-5.48,1.67,1.9,3.18,3.87,4.53,5.86-1.51,1.6-3.22,3.3-5.17,5.14ZM66.42,51.76c-1.44-1.59-3.01-3.13-4.7-4.61,1.93-2.23,3.74-4.38,5.44-6.45,1.83,1.63,3.52,3.33,5.07,5.08-1.79,1.91-3.72,3.91-5.81,5.97ZM61.52,46.98c-1.75-1.53-3.63-2.98-5.63-4.35l4.94-6.89c2.18,1.51,4.23,3.11,6.14,4.8-1.7,2.07-3.52,4.22-5.45,6.45ZM47.8,28.49c1.27-2.34,2.52-4.52,3.72-6.53,2.35.94,4.7,2.05,7.02,3.3-1.31,1.97-2.68,4.06-4.08,6.28-2.2-1.17-4.42-2.19-6.65-3.06ZM43.59,36.07c-2.06-.81-4.11-1.48-6.15-2.02.4-1,.81-2.01,1.24-3.03.68-1.61,1.34-3.12,1.99-4.55,2.25.57,4.51,1.28,6.77,2.16-1.25,2.31-2.54,4.8-3.84,7.44ZM38.44,30.93c-.43,1.03-.85,2.05-1.25,3.06-1.99-.51-3.96-.9-5.89-1.16.39-1.35.81-2.72,1.27-4.1.4-1.22.81-2.39,1.22-3.51,2.18.26,4.39.66,6.62,1.21-.65,1.42-1.3,2.92-1.97,4.51ZM14.87,59.66c-.89-2.43-1.69-5.02-2.36-7.76.9-.43,1.86-.79,2.87-1.08.47,2.84,1.08,5.54,1.78,8.1-.8.19-1.56.44-2.28.75ZM15.4,69.11c-1.47-1.98-2.93-4.15-4.31-6.51.45-.49.95-.94,1.49-1.34,1.21,2.56,2.51,4.92,3.83,7.05-.36.24-.69.51-1,.8ZM9.71,64.55c.18-.34.38-.66.6-.98.18-.26.39-.52.59-.76,1.38,2.35,2.84,4.51,4.31,6.48-.33.33-.63.69-.9,1.09-1.58-1.78-3.14-3.72-4.61-5.83ZM14.35,70.82c1.55,1.72,3.11,3.27,4.58,4.63-.14.22-.25.45-.35.68-1.55-1.2-3.18-2.58-4.8-4.13.15-.41.34-.8.57-1.18ZM18.51,77.32c.04-.26.11-.52.19-.77,2.57,1.98,4.88,3.45,6.47,4.4-.32-.15-.67-.32-1.04-.5-1.55-.76-3.5-1.81-5.62-3.13ZM19.13,75.63c2.48,2.27,4.7,4.01,6.23,5.13-.23-.14-.47-.28-.73-.44-1.55-.95-3.59-2.29-5.82-4.02.09-.23.2-.45.33-.67ZM36.93,86.96c1.97.79,4.21,1.59,6.63,2.32-.29.39-.61.75-.97,1.07-1.73-.69-3.36-1.42-4.85-2.16-.45-.22-.89-.44-1.31-.66.18-.18.35-.37.5-.58ZM43.98,89.14s.04-.05.06-.08c.22-.35.41-.71.56-1.08,2.41.48,5.02.88,7.77,1.13-.23.63-.53,1.23-.89,1.81-2.65-.47-5.17-1.08-7.5-1.78ZM53.23,86.72h.09c2.58,0,5.29-.13,8.09-.43-.2.97-.48,1.92-.87,2.82-.63.02-1.26.03-1.89.03-2.03,0-4.01-.09-5.91-.26.23-.69.4-1.42.49-2.16ZM53.32,86.46h-.06c.04-.43.07-.86.07-1.3,0-.35-.01-.71-.04-1.07,2.7-.21,5.52-.56,8.42-1.1,0,.05,0,.1,0,.15,0,.98-.09,1.94-.25,2.87-2.82.31-5.54.44-8.13.44ZM69.86,76.72c.21,1.28.32,2.55.32,3.78,0,.06,0,.12,0,.18-2.78.85-5.53,1.51-8.22,2.02-.02-1.06-.14-2.13-.35-3.22,2.71-.75,5.48-1.66,8.26-2.76ZM75.96,68.14c.54,1.66.93,3.3,1.18,4.93-2.35,1.25-4.71,2.34-7.08,3.29-.26-1.43-.64-2.88-1.15-4.33,2.36-1.16,4.72-2.45,7.04-3.89ZM85.78,52.67c.94,1.93,1.72,3.87,2.34,5.81-1.46,1.37-3.12,2.8-5,4.31-.16.12-.32.25-.48.37-.59-1.89-1.34-3.79-2.24-5.67,2.05-1.68,3.83-3.29,5.38-4.82ZM72.41,45.59c-1.56-1.76-3.25-3.47-5.08-5.1,1.65-2.01,3.2-3.94,4.63-5.77,1.93,1.73,3.72,3.54,5.36,5.39-1.48,1.73-3.12,3.56-4.9,5.48ZM60.77,35.37c-.34-.23-.69-.47-1.03-.69-1.66-1.09-3.35-2.09-5.05-3,1.4-2.22,2.76-4.32,4.07-6.28,2.02,1.11,4.01,2.32,5.96,3.66.13.08.25.17.38.26l-4.34,6.05ZM40.78,26.24c1.14-2.5,2.24-4.74,3.3-6.75,2.39.63,4.79,1.42,7.2,2.38-1.2,2.01-2.44,4.18-3.72,6.53-2.26-.88-4.53-1.6-6.78-2.16ZM33.88,24.96c.95-2.56,1.92-4.85,2.9-6.88,2.31.29,4.66.74,7.04,1.35-1.06,2.01-2.16,4.25-3.3,6.75-2.23-.55-4.45-.96-6.64-1.21ZM32.32,28.64c-.46,1.39-.88,2.78-1.28,4.15-1.92-.25-3.79-.37-5.63-.37-.09,0-.19,0-.28,0,.56-2.5,1.26-5.01,2.11-7.52.35-.01.71-.02,1.06-.02,1.71,0,3.45.1,5.22.29-.4,1.1-.81,2.25-1.2,3.46ZM23.47,40.58s-.07,0-.11,0c-1.53,0-3.01.1-4.45.3.1-2.54.34-5.13.73-7.76,1.66-.26,3.38-.41,5.15-.43-.59,2.66-1.02,5.3-1.33,7.9ZM18.91,41.13c1.43-.2,2.93-.3,4.46-.3h.08c-.35,3.01-.54,5.96-.59,8.81-.19,0-.38,0-.57,0h0c-1.1,0-2.17.07-3.21.19-.14-1.9-.22-3.86-.22-5.85,0-.94.02-1.88.05-2.83ZM12.68,60.86c-1.06-2.28-2.06-4.72-2.91-7.32.77-.58,1.61-1.09,2.5-1.53.67,2.74,1.48,5.33,2.36,7.75-.69.31-1.35.68-1.95,1.1ZM10.95,62.37c-1.23-2.12-2.37-4.38-3.38-6.78.6-.69,1.26-1.31,1.98-1.87.86,2.59,1.85,5.02,2.91,7.3-.55.4-1.05.85-1.51,1.35ZM18.48,77.6c2.68,1.67,5.08,2.88,6.73,3.65-.19-.07-.38-.13-.58-.2-1.63-.59-3.81-1.46-6.18-2.64,0-.07,0-.13,0-.2,0-.2.01-.4.04-.6ZM43.83,89.36c2.34.69,4.86,1.31,7.51,1.78-.04.06-.07.11-.11.16-.38.54-.81,1.03-1.28,1.48-2.5-.65-4.88-1.45-7.09-2.32.36-.34.68-.7.97-1.11ZM52.65,89.13c1.93.17,3.94.26,6,.26.59,0,1.18,0,1.77-.02-.31.7-.69,1.37-1.12,2.02-.09.14-.18.27-.28.4-2.5-.13-4.93-.42-7.26-.83.36-.58.65-1.19.88-1.83ZM69.68,84.92c-.28,1.2-.68,2.36-1.21,3.47-2.61.4-5.16.63-7.65.71.38-.91.66-1.86.85-2.85,2.6-.28,5.27-.72,8.01-1.34ZM61.97,83.15c0-.07,0-.14,0-.2,2.69-.5,5.43-1.16,8.21-2.01-.02,1.26-.16,2.5-.43,3.69-2.74.63-5.42,1.06-8.02,1.36.16-.93.24-1.87.24-2.84ZM82.51,63.59c.55,1.85.96,3.68,1.2,5.5-2.07,1.43-4.19,2.7-6.32,3.85-.26-1.64-.66-3.29-1.2-4.95,2.14-1.33,4.26-2.8,6.32-4.4ZM85.86,52.22c-1-2.03-2.17-4.04-3.51-6.03,1.59-1.69,2.95-3.26,4.12-4.72,1.3,2.07,2.43,4.18,3.4,6.31-1.12,1.39-2.44,2.87-4.01,4.44ZM67.14,40.33c-1.91-1.69-3.96-3.3-6.15-4.81l4.33-6.05c2.29,1.6,4.44,3.3,6.44,5.08-1.43,1.84-2.97,3.76-4.62,5.77ZM58.68,25.06c-2.32-1.26-4.67-2.37-7.02-3.32,1.28-2.13,2.51-4.05,3.67-5.79,2.43.97,4.86,2.11,7.26,3.43-1.24,1.75-2.55,3.64-3.91,5.68ZM44.2,19.26c1.18-2.22,2.31-4.15,3.39-5.84,2.48.63,4.99,1.44,7.48,2.43-1.17,1.74-2.4,3.67-3.67,5.8-2.4-.96-4.81-1.75-7.2-2.38ZM19.69,32.84c.38-2.44.89-4.89,1.57-7.37,1.84-.32,3.74-.51,5.7-.57-.85,2.51-1.54,5.02-2.1,7.52-1.78.02-3.51.17-5.17.43ZM14.45,42.13c.14,2.91.45,5.73.89,8.43-1.01.29-1.98.65-2.89,1.08-.62-2.57-1.11-5.27-1.45-8.09,1.08-.56,2.24-1.03,3.45-1.42ZM10.1,63.42c-.2.28-.39.58-.55.88-1.34-1.96-2.58-4.06-3.65-6.28.21-.38.43-.76.67-1.12.26-.38.53-.74.82-1.09,1.01,2.39,2.16,4.65,3.38,6.76-.24.27-.47.55-.67.85ZM9.58,64.81c1.46,2.1,3.02,4.04,4.6,5.8-.24.39-.43.78-.59,1.19-1.61-1.55-3.21-3.26-4.71-5.14.18-.64.41-1.26.7-1.85ZM13.69,72.27c1.63,1.54,3.26,2.92,4.8,4.11-.09.26-.16.52-.21.79-1.58-1-3.25-2.15-4.9-3.46.06-.49.16-.98.32-1.44ZM25.26,81.54c-1.54-.34-3.71-.91-6.13-1.77-.18-.06-.36-.13-.54-.2-.06-.29-.11-.59-.13-.87,2.7,1.34,5.13,2.27,6.79,2.84ZM25.68,81.89c-1.31-.1-3.2-.31-5.34-.73-.44-.09-.89-.19-1.34-.29-.13-.33-.24-.66-.33-.99,2.84,1.03,5.38,1.67,7.01,2.02ZM22.74,82.52c1.35,0,2.52-.06,3.37-.13-.45.12-1,.25-1.62.39-1.15.25-2.55.49-4.01.64-.25-.33-.48-.66-.69-1,1.04.08,2.05.11,2.97.11ZM29.02,84.05c1.18,1.18,2.92,2.82,5.12,4.57-.24.08-.49.15-.74.21-1.56-1.51-2.85-2.94-3.82-4.1-.2-.23-.39-.46-.56-.68ZM49.73,93c-.5.45-1.04.85-1.63,1.2-2.34-.78-4.55-1.71-6.6-2.72.41-.25.79-.52,1.14-.83,2.21.88,4.59,1.68,7.09,2.34ZM51.45,91.45c.06-.08.11-.17.17-.25,2.31.4,4.73.7,7.22.84-.57.74-1.2,1.42-1.91,2.04-2.3-.25-4.53-.67-6.69-1.21.44-.43.84-.9,1.2-1.41ZM83.29,62.98c1.85-1.47,3.48-2.89,4.92-4.23.62,1.95,1.07,3.9,1.34,5.81-1.26,1.1-2.66,2.22-4.23,3.37-.46.34-.92.67-1.38.99-.25-1.82-.66-3.66-1.22-5.5.19-.15.38-.29.57-.45ZM86.49,41.02c-1.35-2.12-2.86-4.2-4.54-6.21,1.27-1.67,2.36-3.21,3.28-4.59,1.69,1.98,3.21,4.02,4.57,6.1-.88,1.44-1.96,3-3.3,4.71ZM77.49,39.91c-1.65-1.86-3.44-3.66-5.37-5.4,1.48-1.9,2.84-3.71,4.08-5.4,1.96,1.82,3.77,3.73,5.42,5.7-1.21,1.58-2.59,3.29-4.13,5.09ZM65.47,29.26l4-5.59c2.33,1.64,4.51,3.41,6.53,5.27-1.24,1.69-2.59,3.49-4.08,5.4-2.01-1.78-4.16-3.48-6.45-5.08ZM65.26,29.11c-.13-.09-.25-.18-.39-.27-1.96-1.34-3.95-2.56-5.96-3.66,1.36-2.04,2.67-3.94,3.91-5.68,2.17,1.2,4.32,2.53,6.42,4.01,0,0,.01,0,.02.02l-4,5.59ZM47.74,13.19c1.1-1.71,2.17-3.18,3.19-4.44,2.49.62,4.99,1.43,7.49,2.41-1,1.31-2.08,2.8-3.21,4.47-2.49-.99-5-1.8-7.48-2.44ZM43.94,19.19c-2.37-.62-4.73-1.07-7.04-1.37,1.07-2.21,2.14-4.12,3.2-5.78,2.37.27,4.79.7,7.23,1.31-1.09,1.7-2.21,3.63-3.39,5.84ZM30.74,17.69c1.88,0,3.81.12,5.77.35-.97,2.04-1.94,4.32-2.9,6.88-1.8-.2-3.57-.3-5.31-.3-.33,0-.65,0-.98.01.2-.57.4-1.14.61-1.71.7-1.9,1.41-3.64,2.13-5.23.22,0,.45,0,.67,0ZM19.42,32.89c-1.6.26-3.14.64-4.61,1.12.07-1.03.17-2.06.29-3.1.16-1.39.38-2.71.64-3.99,1.66-.59,3.41-1.05,5.22-1.39-.67,2.47-1.18,4.93-1.55,7.36ZM19.38,33.15c-.39,2.62-.63,5.22-.73,7.75-1.37.2-2.69.49-3.95.88-.04-.97-.06-1.94-.06-2.93,0-1.5.05-3.02.15-4.56,1.46-.49,2.99-.87,4.59-1.14ZM9.69,53.28c-.79-2.41-1.45-4.95-1.95-7.6.93-.76,1.94-1.43,3.02-2.01.34,2.82.84,5.51,1.46,8.07-.9.45-1.74.96-2.52,1.53ZM7.51,45.87c.51,2.64,1.17,5.17,1.96,7.58-.73.56-1.4,1.18-2,1.87-.83-2.01-1.57-4.1-2.17-6.27-.07-.24-.12-.47-.19-.7.71-.91,1.51-1.73,2.39-2.48ZM13.48,72.07c-.16.47-.28.95-.35,1.45-1.59-1.28-3.17-2.7-4.65-4.28.03-.78.13-1.54.31-2.27,1.5,1.87,3.09,3.56,4.69,5.09ZM25.73,82.15c-.8.06-1.83.11-2.99.11v.05h0v-.05c-.97,0-2.02-.03-3.12-.12-.18-.32-.35-.65-.49-.97,2.66.61,5.06.88,6.61.99ZM26.35,82.59c-.7.35-1.69.82-2.81,1.28-.63.27-1.3.53-1.99.77-.32-.32-.62-.66-.89-.99,2.32-.25,4.42-.73,5.69-1.06ZM26.59,82.76c-.66.58-1.61,1.43-1.99,1.74-.48.39-1.18.94-1.72,1.33-.4-.31-.77-.64-1.12-.98,1.95-.69,3.76-1.55,4.84-2.09ZM28.08,88.54c-.37-.11-.75-.24-1.13-.38.04-1.84.24-3.6.4-4.73.09,1.19.28,3.08.73,5.11ZM27.63,83.59c.33,1.24.91,3.18,1.79,5.26-.35-.06-.7-.14-1.05-.23-.09-.41-.18-.82-.25-1.22-.27-1.5-.42-2.86-.49-3.81ZM34.38,88.81c1.43,1.13,3.05,2.29,4.81,3.41-.47.14-.96.25-1.47.34-.87-.66-1.7-1.34-2.47-2.02-.57-.5-1.11-1-1.63-1.49.26-.06.52-.14.76-.23ZM47.8,94.37c-.67.38-1.4.7-2.17.96-2.08-.88-4.03-1.93-5.84-3.04.5-.18.98-.4,1.44-.65,2.03,1,4.23,1.94,6.57,2.73ZM56.66,94.3c-.68.56-1.41,1.07-2.19,1.51-2.09-.36-4.11-.88-6.05-1.51.58-.36,1.12-.77,1.61-1.23,2.14.54,4.36.97,6.63,1.23ZM61.99,91.87c-.89,0-1.78-.02-2.66-.06.06-.09.13-.18.19-.26.47-.7.87-1.42,1.19-2.18,2.47-.08,5.02-.29,7.62-.69-.32.65-.68,1.27-1.09,1.88-.26.39-.55.77-.85,1.14-.23.02-.45.04-.68.05-1.25.09-2.49.13-3.72.13ZM70.03,84.58c.25-1.21.38-2.44.41-3.71,2.32-.71,4.66-1.56,7-2.56-.07,1.48-.28,2.92-.63,4.32-.75.26-1.52.52-2.33.76-1.5.45-2.98.85-4.45,1.19ZM77.71,77.9c0-.26.01-.51.01-.77,0-1.29-.1-2.6-.29-3.93,2.13-1.14,4.24-2.41,6.31-3.83.16,1.26.24,2.52.24,3.74,0,.54-.02,1.08-.05,1.61-1.31.79-2.72,1.56-4.23,2.27-.66.32-1.32.62-1.99.91ZM88.34,58.28c-.63-1.93-1.41-3.87-2.36-5.8,1.56-1.56,2.89-3.03,4.01-4.42.92,2.05,1.68,4.11,2.27,6.16-1.11,1.28-2.41,2.64-3.93,4.06ZM90.05,47.55c-.97-2.12-2.11-4.23-3.41-6.3,1.34-1.7,2.43-3.26,3.31-4.7,1.3,2.01,2.44,4.06,3.41,6.11-.83,1.48-1.91,3.1-3.31,4.88ZM81.78,34.61c-1.66-1.98-3.47-3.88-5.43-5.7,1.19-1.63,2.26-3.15,3.2-4.55,1.99,1.81,3.82,3.71,5.5,5.66-.9,1.39-1.99,2.92-3.27,4.6ZM69.62,23.46l3.22-4.49c2.32,1.64,4.49,3.38,6.51,5.21-.94,1.4-2.01,2.92-3.2,4.55-2.02-1.86-4.2-3.62-6.53-5.27ZM62.74,19.16c-2.4-1.31-4.83-2.45-7.26-3.43,1.13-1.67,2.2-3.16,3.21-4.46,2.46.97,4.91,2.13,7.33,3.45-1.03,1.34-2.12,2.83-3.27,4.45ZM40.25,11.8c1.11-1.73,2.2-3.18,3.25-4.4,2.35.26,4.74.69,7.15,1.28-1.02,1.27-2.08,2.74-3.18,4.45-2.44-.61-4.85-1.05-7.22-1.32ZM27.69,22.83c-.22.6-.44,1.2-.64,1.81-1.96.05-3.87.24-5.71.56.24-.88.51-1.76.8-2.65.5-1.53,1.01-2.95,1.55-4.27,1.96-.34,4-.54,6.1-.58-.7,1.57-1.39,3.27-2.09,5.13ZM14.38,38.85c0,1.01.02,2.02.07,3.01-1.22.39-2.38.86-3.47,1.42-.2-1.73-.33-3.5-.4-5.31-.02-.62-.03-1.22-.03-1.82,1.25-.69,2.58-1.28,3.98-1.77-.1,1.51-.15,3-.15,4.47ZM7.68,45.39c-.22-1.22-.41-2.45-.56-3.71-.12-1.02-.2-2.01-.25-2.97,1.04-.9,2.19-1.71,3.41-2.41,0,.55.01,1.11.04,1.68.07,1.85.21,3.66.41,5.43-1.09.57-2.11,1.24-3.04,1.99ZM9.41,64.57c-.3.59-.55,1.2-.73,1.84-1.4-1.78-2.72-3.72-3.86-5.79.24-.8.55-1.57.93-2.31,1.08,2.21,2.33,4.3,3.67,6.25ZM18.19,78.57c.02.3.05.6.11.9-1.5-.57-3.08-1.25-4.63-2.05-.15-.54-.25-1.08-.3-1.61,1.62,1.06,3.26,1.99,4.82,2.77ZM18.37,79.77c.08.34.19.68.32,1.03-1.4-.34-2.85-.77-4.28-1.33-.26-.57-.47-1.14-.64-1.71,1.55.79,3.11,1.46,4.6,2.02ZM18.8,81.09c.14.34.31.68.49,1.02-1.24-.11-2.52-.29-3.78-.57-.36-.58-.68-1.16-.95-1.74,1.42.54,2.86.96,4.24,1.29ZM26.83,83.18c-.43.99-1.07,2.55-1.61,4.19-.3-.16-.6-.34-.9-.52-.06-.03-.12-.07-.17-.11l2.68-3.56ZM26.95,88.44c.4.15.8.28,1.2.39.22.95.49,1.93.84,2.87-.64-.21-1.29-.45-1.94-.72-.07-.71-.1-1.44-.1-2.18,0-.12,0-.24,0-.36ZM30.86,89.28c.7,1.11,1.5,2.25,2.4,3.35-.59-.07-1.19-.16-1.8-.29-.62-1.03-1.15-2.11-1.61-3.16.34.05.68.08,1.01.09ZM35.27,92.76c-.53,0-1.08-.03-1.64-.08-.92-1.11-1.74-2.26-2.45-3.38.09,0,.17,0,.25,0,.25,0,.5-.01.74-.03.95,1.15,2.03,2.34,3.22,3.48-.04,0-.07,0-.11,0ZM32.48,89.25c.29-.03.56-.08.83-.14,1.2,1.16,2.56,2.35,4.05,3.5-.52.07-1.06.12-1.62.14-1.06-1.01-2.03-2.05-2.91-3.08-.12-.14-.24-.28-.36-.42ZM39.48,92.4c1.79,1.11,3.73,2.16,5.78,3.06-.7.22-1.44.39-2.21.51-1.8-.94-3.49-2.04-5.04-3.2.51-.09,1-.22,1.47-.37ZM48.13,94.48c1.91.63,3.91,1.16,5.99,1.54-.87.47-1.8.87-2.78,1.2-1.84-.43-3.63-1.03-5.34-1.74.76-.28,1.47-.6,2.14-1ZM57.02,94.34c1.47.15,2.96.24,4.47.24h.05c.28,0,.56,0,.83-.01.37,0,.73-.02,1.08-.04-.92.7-1.91,1.32-2.97,1.85-.19,0-.37,0-.55,0-1.72-.05-3.41-.22-5.06-.49.77-.46,1.49-.97,2.15-1.54ZM62.36,94.32c-.27,0-.55,0-.82,0h-.07c-1.41,0-2.81-.08-4.2-.22.69-.62,1.32-1.31,1.87-2.06.94.05,1.88.07,2.84.07,1.24,0,2.48-.04,3.74-.13.14,0,.29-.02.43-.03-.71.84-1.49,1.61-2.35,2.3-.48.03-.95.05-1.44.06ZM67.46,90.69c.45-.66.85-1.36,1.19-2.07,1.16-.18,2.32-.4,3.49-.65,1-.22,1.96-.46,2.88-.73-.31.57-.65,1.13-1.01,1.67-.39.57-.81,1.12-1.24,1.64-1.88.51-3.88.88-6.01,1.09.25-.31.48-.63.7-.96ZM72.08,87.72c-1.11.24-2.21.45-3.29.62.52-1.11.91-2.28,1.18-3.49,1.51-.35,3.04-.75,4.59-1.22.75-.23,1.47-.46,2.17-.71-.37,1.39-.88,2.73-1.54,4.01-.99.29-2.02.55-3.11.79ZM77.7,78.19c.71-.31,1.41-.62,2.11-.96,1.46-.69,2.82-1.42,4.1-2.19-.12,1.64-.38,3.25-.79,4.8-1.8.96-3.79,1.86-6.02,2.67.34-1.4.53-2.85.6-4.33ZM89.79,64.36c-.29-1.92-.75-3.86-1.36-5.81,1.51-1.42,2.81-2.76,3.92-4.04.58,2.04,1,4.07,1.25,6.07-1.08,1.22-2.34,2.48-3.8,3.77ZM93.5,42.96c.97,2.1,1.77,4.2,2.4,6.3-.86,1.45-1.98,3.02-3.43,4.71-.6-2.05-1.37-4.11-2.29-6.15,1.4-1.76,2.49-3.38,3.33-4.86ZM89.94,36.07c-1.36-2.07-2.88-4.11-4.57-6.08.91-1.41,1.64-2.66,2.18-3.74,1.62,1.92,3.09,3.9,4.38,5.92-.51,1.2-1.16,2.49-2,3.9ZM85.2,29.78c-1.68-1.94-3.52-3.83-5.5-5.65.89-1.32,1.66-2.54,2.32-3.63,1.93,1.77,3.72,3.62,5.35,5.53-.53,1.08-1.26,2.33-2.17,3.75ZM69.41,23.31s-.02,0-.02-.01c-2.1-1.47-4.25-2.81-6.42-4.01,1.15-1.62,2.24-3.1,3.28-4.45,2.16,1.19,4.29,2.52,6.39,3.98l-3.22,4.49ZM58.59,10.95c-2.5-.99-5-1.79-7.48-2.42,1.01-1.24,1.98-2.27,2.92-3.18,2.43.59,4.87,1.36,7.31,2.3-.85.92-1.77,2.02-2.76,3.3ZM50.84,8.45c-2.4-.6-4.79-1.03-7.13-1.29,1.09-1.25,2.12-2.25,3.08-3.07,2.28.23,4.61.62,6.95,1.18-.93.91-1.9,1.95-2.9,3.18ZM43.19,7.37c-1.04,1.23-2.12,2.68-3.23,4.4-1.78-.19-3.55-.29-5.28-.29-.48,0-.96,0-1.44.02,1.01-1.7,2.02-3.13,3.01-4.35.65-.03,1.3-.04,1.96-.04,1.63,0,3.3.09,4.98.26ZM26.61,12.25c.97-1.65,1.97-3.06,2.98-4.26,2.03-.44,4.14-.71,6.32-.82-.98,1.22-1.98,2.66-2.97,4.35-2.18.09-4.3.33-6.33.73ZM32.78,11.78c-.96,1.64-1.93,3.52-2.89,5.66-2.1.04-4.14.23-6.1.56.85-2.06,1.73-3.87,2.64-5.45,2.04-.42,4.16-.68,6.35-.77ZM21.88,22.47c-.3.93-.58,1.85-.83,2.78-1.82.33-3.57.78-5.24,1.37.52-2.47,1.22-4.73,2.04-6.8,1.75-.64,3.6-1.13,5.52-1.48-.51,1.28-1.01,2.66-1.49,4.14ZM11.14,28.72c.4-2.41.99-4.57,1.71-6.5,1.46-.89,3.02-1.65,4.67-2.27-.81,2.06-1.49,4.32-2,6.78-1.54.56-3.01,1.22-4.39,2ZM15.46,27.02c-.25,1.23-.46,2.52-.62,3.85-.13,1.08-.23,2.16-.3,3.23-1.41.48-2.75,1.06-4,1.75.01-2.46.21-4.72.54-6.81,1.37-.79,2.84-1.46,4.38-2.03ZM6.86,41.71c.16,1.32.36,2.61.59,3.87-.88.74-1.69,1.55-2.41,2.45-.54-2.19-.84-4.31-.97-6.34.77-1,1.61-1.92,2.54-2.75.05.9.13,1.82.24,2.78ZM4.42,49.3c.16-.23.33-.46.5-.69.04.17.09.34.13.5.61,2.23,1.37,4.38,2.23,6.43-.33.39-.64.8-.92,1.22-.21.32-.41.64-.6.97-.71-1.5-1.34-3.06-1.87-4.66-.21-.63-.39-1.27-.56-1.9.32-.65.69-1.27,1.1-1.88ZM4.71,60.97c1.16,2.06,2.48,3.98,3.88,5.75-.19.73-.31,1.48-.35,2.26-1.48-1.61-2.85-3.37-4.01-5.29.08-.93.24-1.84.48-2.72ZM19.45,82.38c.21.36.45.71.71,1.06-.74.06-1.48.11-2.23.11-.33,0-.67-.01-1-.03-.45-.55-.86-1.11-1.22-1.68,1.25.26,2.52.44,3.74.54ZM17.93,83.8c.81,0,1.62-.05,2.41-.12.28.36.59.71.93,1.06-.85.29-1.72.55-2.56.73-.56-.55-1.08-1.11-1.56-1.68.26.01.52.02.78.02ZM21.48,84.94c.36.36.76.71,1.17,1.05-.63.45-1.28.89-1.91,1.26-.64-.51-1.24-1.03-1.81-1.57.84-.19,1.7-.45,2.54-.74ZM22.87,86.16c.29.22.59.44.9.65l-1.29,1.71c-.53-.35-1.03-.72-1.52-1.1.63-.38,1.28-.81,1.91-1.27ZM25.37,87.74c.44.22.88.42,1.32.6,0,.15,0,.31,0,.46,0,.69.03,1.39.09,2.06-.67-.29-1.34-.61-2-.96.16-.7.37-1.43.6-2.16ZM29.55,89.14c.45,1.04.97,2.11,1.57,3.14-.6-.13-1.2-.29-1.81-.48-.36-.94-.64-1.92-.87-2.89.37.1.74.17,1.11.23ZM45.62,95.61c1.68.71,3.43,1.31,5.24,1.76-.88.28-1.79.49-2.74.65-1.63-.48-3.2-1.12-4.69-1.87.76-.14,1.49-.32,2.19-.55ZM54.52,96.09c1.76.3,3.56.5,5.4.55.01,0,.03,0,.04,0-1.11.52-2.28.96-3.51,1.31-1.58-.07-3.13-.29-4.64-.62.96-.35,1.86-.76,2.71-1.24ZM83.02,80.19c-.42,1.51-1,2.98-1.72,4.39-1.72.84-3.63,1.6-5.78,2.24.64-1.28,1.13-2.62,1.49-4.01,2.22-.79,4.21-1.68,6-2.63ZM89.85,70.79c-.1,1.75-.37,3.46-.8,5.11-1.6,1.31-3.45,2.59-5.61,3.78.4-1.56.65-3.16.75-4.8,2.13-1.29,4-2.67,5.66-4.09ZM89.84,64.66c1.46-1.28,2.72-2.53,3.8-3.73.16,1.35.24,2.69.24,4,0,.49-.01.98-.03,1.47-1.08,1.29-2.31,2.56-3.7,3.8.01-.36.02-.71.02-1.07,0-1.47-.11-2.96-.32-4.46ZM90.1,36.31c.83-1.39,1.49-2.67,2-3.87,1.23,1.93,2.32,3.9,3.24,5.88-.41,1.18-.98,2.54-1.82,4.08-.98-2.05-2.12-4.08-3.42-6.08ZM79.5,23.96c-2.02-1.82-4.19-3.57-6.5-5.2l2.51-3.49c2.25,1.59,4.36,3.29,6.32,5.06-.66,1.09-1.43,2.3-2.32,3.63ZM72.78,18.61c-2.09-1.47-4.22-2.79-6.38-3.98.95-1.25,1.85-2.38,2.68-3.38,2.1,1.15,4.17,2.44,6.2,3.86l-2.51,3.5ZM66.17,14.5c-2.42-1.32-4.87-2.47-7.33-3.46.99-1.28,1.92-2.38,2.77-3.3,2.43.95,4.86,2.08,7.25,3.38-.83,1-1.73,2.13-2.68,3.38ZM17.98,19.5c.78-1.9,1.66-3.64,2.62-5.21,1.74-.7,3.57-1.26,5.49-1.67-.9,1.59-1.77,3.39-2.6,5.43-1.92.34-3.76.82-5.5,1.45ZM12.99,21.83c.66-1.74,1.42-3.29,2.23-4.67,1.54-1.06,3.21-1.96,4.99-2.7-.93,1.56-1.8,3.28-2.55,5.16-1.64.61-3.2,1.35-4.66,2.21ZM6.81,36.6c0-1.69.11-3.27.31-4.76,1.13-.98,2.36-1.85,3.67-2.62-.32,2.08-.51,4.34-.52,6.78-1.23.69-2.37,1.48-3.42,2.38-.03-.61-.05-1.2-.05-1.78ZM3.22,50.81c-.55-2.09-.89-4.12-1.05-6.08.37-.74.79-1.45,1.26-2.14.13-.2.27-.39.41-.58.14,2.02.46,4.12,1,6.28-.22.28-.43.57-.63.87-.36.53-.69,1.08-.98,1.65ZM5.6,58.02c-.39.73-.71,1.5-.96,2.28-.73-1.34-1.39-2.76-1.96-4.23-.21-.54-.4-1.08-.58-1.61.27-1.01.62-1.98,1.06-2.92.15.53.31,1.07.49,1.62.55,1.68,1.21,3.3,1.96,4.86ZM4.19,64.13c1.18,1.89,2.55,3.62,4.03,5.22,0,.12,0,.24,0,.36,0,.6.04,1.21.12,1.83-1.54-1.45-2.94-3.08-4.11-4.88-.04-.51-.07-1.01-.07-1.51,0-.34.01-.68.03-1.02ZM13.45,77.58c.16.57.36,1.16.61,1.74-1.23-.5-2.43-1.09-3.56-1.79-.4-.8-.74-1.61-1.02-2.41,1.27.93,2.61,1.74,3.97,2.46ZM14.21,79.66c.27.6.59,1.2.95,1.79-1.02-.25-2.02-.56-2.95-.97-.55-.83-1.05-1.68-1.49-2.52,1.11.66,2.29,1.22,3.49,1.7ZM15.35,81.76c.37.59.78,1.16,1.23,1.74-.83-.06-1.65-.18-2.41-.38-.62-.74-1.18-1.49-1.71-2.25.92.37,1.89.66,2.88.89ZM23.99,86.95c.06.04.12.08.19.12.32.2.64.38.96.55-.23.72-.44,1.45-.6,2.15-.44-.24-.88-.49-1.31-.77-.18-.11-.35-.22-.53-.33l1.29-1.72ZM26.81,91.15c.07.68.19,1.34.36,1.93-.89-.43-1.79-.89-2.67-1.39.03-.47.11-.99.22-1.53.69.37,1.39.7,2.09,1ZM29.1,92c.33.84.71,1.64,1.16,2.37-.93-.34-1.86-.72-2.78-1.15-.18-.59-.31-1.25-.39-1.96.67.28,1.35.52,2.02.73ZM31.3,92.58c.58.97,1.24,1.89,1.97,2.72-.86-.22-1.73-.48-2.6-.79-.48-.73-.89-1.54-1.24-2.41.63.19,1.25.35,1.87.48ZM33.5,92.92c.91,1.08,1.91,2.11,3.01,3.03-.92-.13-1.85-.31-2.79-.54-.77-.83-1.46-1.78-2.07-2.77.63.12,1.24.21,1.85.28ZM33.87,92.95c.48.04.95.06,1.41.06.13,0,.25,0,.37,0,1.21,1.14,2.53,2.24,3.95,3.2-.85-.02-1.72-.07-2.6-.18-1.14-.92-2.19-1.96-3.13-3.07ZM43.01,96.23c1.44.74,2.96,1.39,4.54,1.89-1.04.15-2.12.25-3.22.28-1.35-.51-2.65-1.17-3.87-1.94.88-.02,1.73-.1,2.55-.22ZM51.34,97.49c1.41.33,2.85.56,4.32.67-1.18.29-2.4.51-3.67.65-1.13-.12-2.23-.34-3.3-.63.92-.18,1.81-.42,2.66-.7ZM57.25,97.97c1.15-.36,2.25-.8,3.28-1.33.16,0,.32,0,.48,0,1.21,0,2.4-.06,3.55-.17-1.23.53-2.53.96-3.89,1.31-1.02.12-2.02.18-3.02.18-.13,0-.26,0-.4,0ZM61.03,96.4c1.03-.55,1.99-1.18,2.88-1.89,1.89-.11,3.69-.36,5.4-.71-1.22.91-2.55,1.68-3.98,2.35-1.39.17-2.82.25-4.31.25ZM64.26,94.23c.83-.69,1.59-1.46,2.27-2.3,2.1-.19,4.07-.54,5.93-1.02-.81.92-1.7,1.76-2.67,2.52-1.75.39-3.6.66-5.54.8ZM73.2,90.44c.36-.45.7-.9,1.02-1.38.42-.62.8-1.26,1.14-1.91,2.12-.63,4.02-1.36,5.73-2.18-.36.67-.76,1.33-1.19,1.97-.31.45-.64.89-.97,1.32-1.76.85-3.67,1.6-5.74,2.19ZM88.93,76.33c-.45,1.59-1.05,3.11-1.81,4.57-1.54,1.24-3.33,2.42-5.42,3.49.69-1.4,1.24-2.86,1.65-4.37,2.14-1.16,3.99-2.41,5.59-3.69ZM93.82,60.32c-.26-2-.69-4.02-1.27-6.05,1.44-1.67,2.57-3.23,3.44-4.67.58,2,.99,3.99,1.23,5.95-.85,1.52-1.96,3.11-3.41,4.77ZM87.59,25.57c-.03.07-.07.14-.1.21-1.63-1.9-3.41-3.74-5.34-5.5.34-.57.65-1.1.92-1.6.24-.44.45-.86.62-1.25,1.81,1.68,3.48,3.43,5.01,5.25-.23.82-.59,1.79-1.1,2.9ZM82.84,18.56c-.27.48-.56,1-.88,1.54-1.96-1.77-4.06-3.46-6.3-5.05l1.88-2.62c2.12,1.51,4.11,3.12,5.95,4.81-.18.42-.39.86-.64,1.32ZM62.85,6.12c-.41.38-.85.82-1.31,1.32-2.43-.94-4.86-1.71-7.28-2.3.9-.84,1.76-1.56,2.6-2.19.02-.01.04-.03.06-.05,2.36.57,4.72,1.3,7.08,2.21-.37.3-.75.63-1.15,1.01ZM43.4,7.13c-1.75-.19-3.49-.28-5.18-.28-.58,0-1.16.02-1.74.03.98-1.18,1.94-2.15,2.87-2.94.88-.05,1.78-.09,2.68-.09,1.44,0,2.91.08,4.4.21-.95.82-1.96,1.83-3.03,3.06ZM29.18,8.08c-.99,1.2-1.97,2.6-2.91,4.23-1.89.39-3.71.93-5.43,1.6.97-1.55,2.01-2.94,3.09-4.18,1.66-.68,3.42-1.24,5.25-1.66ZM12.48,22.45c-.69,1.93-1.25,4.07-1.64,6.44-1.31.76-2.53,1.61-3.67,2.57.33-2.25.87-4.27,1.54-6.08,1.15-1.1,2.42-2.08,3.78-2.93ZM6.82,32.1c-.18,1.41-.28,2.9-.28,4.5,0,.65.02,1.32.05,2-.93.82-1.78,1.71-2.54,2.69-.03-.54-.04-1.08-.04-1.61,0-1.76.14-3.45.38-5.06.75-.9,1.55-1.74,2.43-2.52ZM2.43,56.16c.6,1.56,1.32,3.06,2.1,4.49-.25.86-.43,1.75-.53,2.66-1.02-1.73-1.86-3.58-2.46-5.55.07-.97.22-1.91.43-2.84.15.41.3.82.46,1.24ZM20.72,87.57c.51.4,1.05.79,1.61,1.16l-.81,1.08c-.73-.51-1.43-1.03-2.1-1.57.42-.19.85-.41,1.3-.67ZM22.55,88.87c.18.12.36.23.54.35.46.29.93.56,1.39.81-.11.53-.19,1.04-.23,1.51-.78-.45-1.55-.94-2.32-1.45-.07-.05-.13-.09-.2-.14l.81-1.08ZM39.93,96.47s.04,0,.05,0c1.16.75,2.38,1.42,3.66,1.94h-.07c-.96,0-1.94-.05-2.94-.14-1.16-.51-2.25-1.17-3.26-1.94.87.09,1.72.14,2.55.14ZM48.11,98.29c.9.26,1.82.47,2.76.63-.84.06-1.71.1-2.58.1h-.04c-.35,0-.71,0-1.06-.02h-.1s0,.11,0,.11c-.13,0-.27-.01-.4-.02,0,0-.01,0-.02,0-.57-.12-1.12-.28-1.67-.46,1.07-.05,2.12-.17,3.12-.34ZM72.91,90.79c2.03-.55,3.92-1.26,5.66-2.07-.85,1.02-1.78,1.97-2.79,2.83-1.68.69-3.49,1.28-5.41,1.74.92-.76,1.77-1.59,2.54-2.5ZM90.12,70.55c1.39-1.22,2.61-2.47,3.69-3.73-.1,1.77-.35,3.5-.76,5.17-1.03,1.2-2.24,2.42-3.65,3.62.4-1.64.64-3.33.73-5.06ZM96.08,48.95c-.63-2.09-1.44-4.18-2.42-6.27.84-1.51,1.42-2.85,1.84-4.02.97,2.12,1.75,4.26,2.34,6.39-.38,1.19-.95,2.49-1.76,3.9ZM92.73,30.1c-.2.57-.42,1.17-.67,1.78-1.3-2.01-2.77-3.98-4.38-5.88.05-.11.1-.22.15-.32.49-1.05.83-1.96,1.07-2.76,1.54,1.85,2.94,3.78,4.17,5.73-.07.48-.18.97-.34,1.45ZM69.02,10.92c-2.38-1.3-4.8-2.42-7.22-3.38.43-.46.84-.87,1.23-1.23.44-.41.85-.77,1.25-1.09,2.32.91,4.63,1.99,6.91,3.23-.66.71-1.39,1.54-2.17,2.47ZM49.64,1.7c-.84.52-1.83,1.2-2.94,2.13-1.58-.16-3.14-.24-4.67-.24-.79,0-1.57.02-2.35.07,1.14-.93,2.23-1.6,3.26-2.08.83-.05,1.66-.07,2.51-.07,1.38,0,2.77.06,4.19.19ZM36.12,6.89c-2.15.1-4.25.36-6.25.77.95-1.09,1.91-2,2.87-2.77,1.98-.47,4.05-.78,6.18-.93-.91.8-1.85,1.76-2.8,2.93ZM32.16,5.04c-.91.77-1.82,1.66-2.71,2.72-1.79.39-3.51.91-5.14,1.55.78-.85,1.57-1.63,2.36-2.34.24-.11.49-.22.74-.32,1.51-.65,3.1-1.18,4.76-1.6ZM20.42,14.08c-1.74.71-3.38,1.56-4.9,2.56.84-1.39,1.73-2.61,2.6-3.68,1.61-1.17,3.37-2.17,5.26-2.99-1.03,1.23-2.03,2.59-2.96,4.11ZM12.63,22.05c-1.33.82-2.57,1.75-3.72,2.78.53-1.35,1.13-2.58,1.78-3.71,1.2-1.35,2.55-2.55,4.02-3.61-.76,1.36-1.47,2.87-2.09,4.54ZM6.87,31.72c-.85.74-1.66,1.55-2.4,2.4.32-1.95.8-3.78,1.38-5.48.74-1.02,1.54-1.96,2.42-2.84-.62,1.78-1.11,3.75-1.41,5.92ZM3.97,66.74c.02.29.06.58.09.86,0,0,0-.01,0-.01-.11-.29-.21-.57-.32-.85-.03-.09-.07-.19-.1-.29-.07-.19-.13-.38-.2-.57.17.29.34.58.53.86ZM4.28,67.21c1.19,1.75,2.6,3.32,4.12,4.74.12.81.32,1.63.57,2.46-1.27-.99-2.44-2.11-3.44-3.36-.11-.23-.22-.47-.33-.71-.05-.12-.11-.23-.16-.35-.16-.37-.32-.73-.47-1.1-.02-.05-.04-.08-.05-.12,0-.02-.02-.05-.03-.07-.09-.5-.17-1-.22-1.5ZM9.11,74.85c.27.8.59,1.61.97,2.41-.72-.48-1.41-.99-2.04-1.57-.05-.08-.1-.15-.14-.23-.05-.08-.1-.17-.15-.25-.18-.31-.37-.63-.55-.94-.08-.14-.15-.28-.23-.41-.15-.27-.3-.54-.44-.82-.08-.14-.15-.29-.23-.43-.11-.21-.21-.41-.31-.62.94,1.05,2,2,3.12,2.86ZM21.58,90.16c.07.05.14.09.21.14.8.55,1.62,1.06,2.44,1.53,0,.03,0,.08,0,.11-.31-.19-.62-.38-.92-.58-.05-.03-.11-.07-.16-.11h0c-.33-.22-.67-.44-1-.67-.07-.05-.14-.09-.2-.14-.13-.09-.25-.18-.38-.27l.02-.02ZM43.58,98.66c.24,0,.47,0,.7,0,.32.11.64.23.97.32-.1,0-.2-.02-.3-.03-.21-.02-.42-.05-.63-.07-.16-.02-.33-.04-.48-.06-.23-.03-.46-.06-.69-.09-.13-.02-.26-.04-.39-.06-.09-.01-.19-.03-.28-.04.37.02.73.02,1.1.02ZM52.52,99.13c-.59.03-1.19.05-1.78.06.42-.03.84-.07,1.26-.12.17.02.35.04.52.05ZM63.02,97.41c-.11.02-.21.04-.33.06.94-.31,1.84-.67,2.71-1.08.44-.05.88-.11,1.31-.18-.62.23-1.25.45-1.88.65-.03.01-.06.02-.09.03-.25.08-.51.15-.76.23-.07.02-.13.04-.2.06-.26.08-.51.15-.77.22ZM67.96,95.74c-.59.11-1.2.22-1.82.3,1.35-.68,2.61-1.47,3.76-2.38,1.85-.41,3.6-.95,5.24-1.59-.14.12-.28.23-.43.34-.32.19-.65.38-.98.57-.16.09-.32.17-.48.27-.25.14-.51.27-.76.4-.15.08-.29.15-.44.23-.35.18-.7.35-1.06.52-.07.04-.15.07-.23.11-.02.01-.04.02-.06.03-.37.18-.75.35-1.13.51-.11.05-.22.1-.33.14-.39.17-.77.33-1.16.49-.04.02-.08.03-.12.05ZM79.11,88.46c1.42-.69,2.74-1.46,3.97-2.27-.11.11-.23.21-.34.31-.1.09-.19.17-.28.26-.08.07-.16.15-.24.22-.04.04-.08.07-.12.11-.24.21-.49.43-.74.63-.19.15-.37.3-.55.46-.16.13-.33.26-.49.39-.19.15-.39.31-.58.46-.16.12-.33.25-.49.37-.18.14-.36.28-.54.41,0,0-.01.01-.02.02-.13.1-.27.2-.41.29-.19.13-.37.27-.56.4-.2.14-.4.27-.6.41-.1.07-.21.14-.31.21-.08.04-.17.08-.26.12.93-.85,1.8-1.78,2.59-2.78ZM79.47,88c.23-.3.45-.61.66-.92.51-.74.96-1.51,1.37-2.3,2.03-1,3.79-2.12,5.31-3.3-.38.68-.8,1.34-1.25,1.98-.32.45-.66.89-1.01,1.32,0,0-.02.02-.03.03-.08.08-.17.16-.25.25-1.43,1.05-3.04,2.05-4.8,2.94ZM93.87,71.83h0l-.04-.02c-.18.37-.36.73-.55,1.08h0c-.15.27-.29.54-.44.81.16-.52.31-1.05.44-1.59.34-.4.66-.8.97-1.19-.14.3-.28.59-.42.88l.04.02ZM96.14,66.3s-.02.07-.04.11c-.12.36-.25.71-.39,1.06-.01.03-.03.07-.04.1-.14.36-.27.71-.42,1.06-.01.03-.02.06-.03.08-.14.34-.28.67-.42,1-.02.03-.03.06-.05.1-.41.57-.85,1.15-1.33,1.73.37-1.64.59-3.33.67-5.06,1.33-1.59,2.42-3.19,3.32-4.77,0,.17-.02.35-.04.52-.01.05-.03.11-.04.17-.07.28-.15.56-.23.84-.03.1-.06.2-.09.3-.08.3-.17.59-.26.89-.02.06-.04.12-.05.17-.06.2-.13.4-.2.6-.12.36-.24.72-.36,1.08ZM98.89,50.04s0,.09,0,.13c0,.03,0,.07,0,.11,0,.26,0,.53-.01.8,0,.26-.01.51-.02.76,0,.01,0,.02,0,.03-.34,1.05-.8,2.15-1.41,3.29-.26-1.94-.68-3.9-1.26-5.87.8-1.36,1.38-2.62,1.78-3.79.41,1.51.72,3.03.93,4.52h0ZM93.34,28.59c.05-.38.07-.76.08-1.14.04.08.08.16.12.24l.08.15c.41.83.81,1.67,1.18,2.52.03.07.06.14.09.21.1.24.2.49.31.73.03.08.06.15.1.23.1.25.2.5.3.76.02.04.03.09.05.13.12.31.23.62.35.94-.78-1.61-1.67-3.21-2.65-4.77ZM77.47,12.07c-.06-.05-.13-.09-.19-.14-1.86-1.3-3.75-2.49-5.68-3.55.6-.64,1.17-1.14,1.69-1.54.23.13.47.26.71.4.16.09.33.19.49.28h.02c1.45.86,2.86,1.79,4.22,2.78l-1.27,1.77ZM71.37,8.25c-2.26-1.24-4.55-2.31-6.86-3.21.7-.56,1.33-.97,1.89-1.3.05.02.1.04.15.05.21.08.41.15.62.23.23.09.47.18.7.27.14.05.27.11.41.17.32.12.63.25.94.39l.15.06h0c1.26.54,2.49,1.14,3.69,1.79-.52.41-1.09.91-1.68,1.54ZM56.86,2.63c-2.15-.51-4.29-.88-6.4-1.11.42-.23.88-.43,1.37-.61.06,0,.11,0,.16,0,.22.01.45.02.67.03.03,0,.06,0,.09,0,.1,0,.19.01.29.02.21.02.42.03.63.05.08,0,.16.02.24.02.26.02.52.05.78.07.08,0,.16.02.23.02.25.03.5.05.75.08.02,0,.04,0,.06,0,.06,0,.12.02.18.02.24.03.49.06.73.09.07.01.14.02.21.03.28.04.56.09.84.13.03,0,.07,0,.11.02.27.05.54.09.81.14-.6.26-1.19.58-1.75.97ZM33.23,4.52c.8-.6,1.61-1.11,2.4-1.54.06-.02.11-.03.17-.05.08-.02.16-.05.24-.07.12-.03.24-.07.37-.11.18-.05.36-.1.54-.15.15-.04.29-.08.44-.12.16-.05.32-.08.48-.12.17-.04.33-.09.5-.12.15-.03.3-.07.44-.11.18-.04.35-.08.53-.12h0c.15-.04.3-.06.45-.1.15-.03.3-.06.44-.09.67-.08,1.35-.15,2.05-.2-.97.51-1.98,1.18-3.04,2.07-2.07.13-4.08.41-6.02.83ZM22.34,9.35l.03.05.09-.06c1.08-.74,2.21-1.4,3.4-1.99-.71.66-1.41,1.39-2.09,2.17-1.77.74-3.44,1.62-4.99,2.67.18-.21.36-.41.54-.6,0,0,0,0,0,0,.27-.22.55-.43.83-.65h.01c.28-.22.57-.43.85-.64.44-.32.88-.63,1.33-.94ZM18.07,12.61c-.04.05-.09.11-.13.15-.12.09-.24.17-.35.26.16-.14.32-.28.48-.42ZM12.55,18.55l.06-.08c1.34-1.85,2.91-3.48,4.68-4.88-.77,1-1.54,2.13-2.27,3.39-1.33.91-2.56,1.94-3.69,3.08.35-.56.72-1.1,1.09-1.6l.05.03.09.06ZM8.7,23.33c.06-.09.12-.19.18-.28l.08.06.09.06.06-.09c.24-.34.49-.66.76-.99-.5.97-.97,2.02-1.39,3.14-.84.8-1.62,1.66-2.33,2.58.02-.05.04-.11.06-.15.05-.09.09-.19.14-.28.07-.13.14-.27.21-.4.12-.23.25-.46.37-.69,0,0,.01-.02.02-.03.12-.21.24-.42.36-.63.09-.16.18-.32.27-.48.13-.22.27-.44.4-.66.11-.18.22-.36.33-.53.13-.21.26-.42.39-.62ZM4.15,34.51c-.47.58-.93,1.17-1.36,1.8l-.02.04c.02-.09.05-.17.08-.27.08-.26.16-.53.24-.8.04-.13.08-.25.12-.38.08-.24.16-.48.24-.71.05-.15.1-.3.16-.45.07-.21.15-.42.23-.63.06-.17.12-.34.19-.51.07-.19.14-.37.22-.56.07-.19.14-.37.22-.55.07-.17.14-.33.21-.5.08-.2.17-.4.25-.6.06-.15.13-.29.2-.45.05-.12.11-.24.16-.36-.48,1.54-.86,3.19-1.13,4.92ZM2.87,36.48l.09.06.06-.09c.34-.49.69-.97,1.06-1.44-.21,1.49-.32,3.05-.32,4.66,0,.63.02,1.28.06,1.93-.21.27-.41.55-.6.83-.39.58-.75,1.18-1.08,1.79-.06-.86-.09-1.71-.09-2.55,0-1.05.04-2.07.13-3.06,0-.03.01-.06.02-.1.08-.31.16-.63.24-.94.02-.06.03-.11.04-.17.01-.05.03-.09.04-.13.08-.3.16-.59.24-.88l.12.08ZM3.04,51.15c-.45.92-.81,1.87-1.1,2.85-.47-1.48-.84-2.93-1.1-4.36,0-.05,0-.11,0-.16,0-.46.02-.92.03-1.37,0-.06,0-.13,0-.19.28-.94.64-1.85,1.06-2.74.19,1.93.55,3.93,1.1,5.97Z"/>
  </g>
  <path class="st5" d="M93.68,43.21c3.82,23.17-12.16,45-35.68,48.76-23.52,3.76-45.69-11.97-49.5-35.14C4.68,33.66,20.65,11.83,44.17,8.07c23.52-3.76,45.69,11.97,49.51,35.14Z"/>
  <path class="st2" d="M80.5,31.45c6.78,18.08-59.71,42.25-66.49,24.17-6.77-18.09,2.62-38.15,20.98-44.83,18.36-6.67,38.73,2.58,45.51,20.66Z"/>
  <g class="st6">
    <path class="st7" d="M49.88,100c-.41,0-.82,0-1.22-.02l-2.4-.12c-.18-.01-.38-.03-.57-.05l-4.74-.62c-.16-.03-.32-.06-.48-.09l-.07-.02c-.39-.08-.79-.16-1.18-.24-.41-.09-.79-.18-1.16-.27l-.33-.1c-1.11-.25-2.32-.6-3.47-.99l-.87-.3-.02-.28-.12-.05-.08.24-1.28-.47c-.52-.2-.95-.38-1.37-.55l-.54-.22h0c-1.35-.6-2.63-1.23-3.86-1.9l-1.39-.79h0c-1.47-.86-2.93-1.82-4.34-2.86-1.82-1.34-3.57-2.82-5.19-4.4l-.48-.47c-1.76-1.76-3.31-3.55-4.73-5.45l-.08-.13h0s0,0,0,0h0s-.22-.28-.22-.28l-4.41-7.22c-.26-.53-.52-1.06-.76-1.6l-1.15-2.74c-.45-1.17-.82-2.24-1.14-3.3l-.05-.04-.12-.54-.61-2.29c-.19-.77-.36-1.55-.51-2.34l-.18-1c-.08-.46-.14-.86-.2-1.25l-.03-.16.3-.14s.02-.09.02-.13l-.36-.02-.14-1.1c-.05-.45-.1-.9-.14-1.35l-.18-3.18c0-.4-.01-.8-.01-1.19,0-.45,0-.81.01-1.17l.16-2.98c.02-.25.04-.55.07-.84l.31-2.52c.07-.49.13-.85.2-1.21l.51-2.53c.1-.45.18-.78.27-1.11l.88-3.04c.13-.4.27-.8.4-1.2,1.04-2.97,2.38-5.86,3.96-8.59l2.03-3.2h0s2.18-2.92,2.18-2.92l.26.09.07-.08-.21-.16.81-.98h0s.2-.24.2-.24l.24.13.1-.12-.15-.22,2.04-2.21.3.09s.06-.07.09-.11h.01s-.19-.19-.19-.19l.15-.13c.19-.2.41-.42.64-.64l.27-.26.44.2s.03-.02.05-.03l-.31-.33,1.2-1.09c.14-.12.24-.22.35-.3.2-.18.42-.36.64-.55l.32-.27c.29-.24.44-.36.58-.47l2.69-2,.23.16.09-.06-.16-.21.86-.58c.57-.37,1.14-.73,1.72-1.08l.24.19.09-.07-.14-.22,1.16-.67.21.18.1-.05-.13-.23.62-.33c.39-.21.68-.36.97-.51l1.15-.56s.07-.03.1-.04l.02.02h.06s0,.06,0,.06l.1.1s.07-.03.1-.05l-.11-.23c.34-.16.69-.32,1.04-.47l.19-.08c.34-.15.7-.3,1.05-.44l1.08-.42c.8-.3,1.61-.58,2.42-.85.33-.11.57-.18.81-.25l.27-.08c1.79-.53,3.61-.96,5.42-1.28l.98-.16c.16-.02.32-.05.47-.07l1.09-.15c.34-.05.7-.09,1.06-.12,1.25-.13,2.54-.21,3.85-.24.96-.02,1.61-.02,2.35,0l.87.03c1.23.05,2.49.14,3.73.28.16.02.33.03.48.05.22.02.47.06.71.09l1.4.22c1.06.17,2.15.39,3.24.65l.4.09v.27s.11.03.11.03l.1-.25c.34.08.58.15.82.22l.4.1c.36.1.73.21,1.09.32l.29.08c.46.15.93.29,1.38.45.52.18.93.32,1.34.48l.34.13c.34.13.68.26,1.02.4l.21.09c.51.21.89.38,1.26.54l.18.08c.44.2.88.4,1.32.62.51.25.89.44,1.26.64l.3.16c.33.18.67.36,1,.54l.28.16c.83.47,1.66.97,2.46,1.49.47.31.82.55,1.18.79l.68.47.64.44-.18.22.06.04.16-.21c.59.44,1.14.86,1.68,1.29h.01s.15.01.15.01l.12.25.38.29h.37l.04.35c.23.2.46.39.69.59.48.43.82.74,1.16,1.07.4.37.73.69,1.05,1.01h1.87l-1.11.78c.46.48.91.97,1.35,1.47.21.24.38.43.55.63.2.23.38.45.56.67h1.31l-.72.73c.22.28.44.56.65.83.3.39.58.77.85,1.15.31.43.58.82.85,1.22l.08.16c.88,1.29,1.62,2.52,2.31,3.77l.63,1.19c.19.37.37.74.55,1.13l.14.3c.21.45.39.84.56,1.24l.09.19c.15.36.3.71.45,1.07l.11.26c.14.35.28.71.42,1.08l.08.22c.16.43.31.87.46,1.3.16.49.29.88.41,1.27.15.51.28.94.4,1.38l.06.21c.13.48.23.87.32,1.26l.07.27c.21.91.4,1.83.57,2.75l1.03,1.01h-.86c.16,1.05.3,2.12.4,3.2l.08,1.02c.02.31.04.63.06.94l.08,2.7-.02,1.42c0,.38-.02.76-.04,1.13-.02.42-.05.78-.07,1.13l-.12,1.39c-.05.46-.09.79-.13,1.12,0,.09-.02.2-.04.31-.04.34-.09.7-.15,1.06l-.48,2.66c-.06.3-.12.58-.19.86l-1.41,5.01c-.12.36-.23.67-.34.97l-2.61,5.95-.3.02-.12.15.27.13-.4.75-.28-.04s0,0,0,0l-.05.09.23.12-.33.66v1.48l-.56-.6-.08.2v1.37l-.56-.53c-.29.46-.59.92-.9,1.37-.31.44-.52.75-.75,1.06l-.28-.06s-.05.08-.08.11l.22.15c-1.01,1.38-1.99,2.6-3.01,3.74l-.2.23-1.04,1.19v-.08c-.73.76-1.49,1.51-2.28,2.24l.6.57-1.33.1c-.63.56-1.28,1.11-1.94,1.64l-.85.67c-.31.24-.6.45-.89.66l-1.12.89v-.09c-1.68,1.16-3.43,2.22-5.23,3.15l-.02.03-.21.08c-.28.15-.61.32-.95.48-.37.19-.69.33-.99.47-.49.23-.81.37-1.14.51l-.22.08c-.27.12-.64.28-1,.43-1.31.52-2.64.99-3.99,1.4l-.11.03v.15l-.59.03c-.26.07-.59.17-.93.26l-2.29.54c-.33.08-.62.15-.92.2-1.06.21-2.03.37-3.02.5l-.19-.26-.1.04.08.24-2.54.27-.12-.25s-.08,0-.11,0l.02.25c-.26.02-.53.04-.79.05l-.45.02c-.34.02-.7.03-1.08.04h-.24c-.38.02-.76.02-1.15.02h0ZM51.84,97.88c1.64.09,3.24.09,4.81,0,.52-.25,1.03-.54,1.54-.87-1.58.02-3.23-.05-4.95-.21-.46.38-.92.73-1.39,1.07h0ZM39.47,97.72s.07.02.11.02l.06-.25c.32.07.65.14.97.2.13-.05.26-.11.39-.16-1.8-.49-3.6-1.08-5.38-1.76-.21.16-.42.32-.63.47.22.07.44.14.66.21.45.14.8.24,1.15.33l.29.08c.34.09.68.18,1.02.27.54.13.94.23,1.34.32l.03.27h0ZM44.48,96.9c1.69.35,3.39.62,5.06.79.59-.36,1.14-.73,1.67-1.12-1.73-.23-3.49-.56-5.25-.97-.49.46-.97.88-1.48,1.3h0ZM60.73,96.91c-.26.21-.52.42-.78.61l1.79-.42c.16-.04.31-.08.46-.12l1.26-.35c-.9.12-1.81.21-2.73.27h0ZM36.87,94.72c1.93.7,3.88,1.3,5.82,1.78.56-.42,1.08-.85,1.6-1.31-1.97-.52-3.96-1.17-5.93-1.91-.37.39-.73.74-1.07,1.06-.14.13-.29.26-.42.39h0ZM27.73,93.22c.94.49,1.91.95,2.88,1.37.45.2.76.32,1.07.45l1.6.62c.25-.15.51-.32.77-.5-1.9-.79-3.77-1.67-5.57-2.65-.25.25-.5.49-.75.71h0ZM54.7,95.5c1.93.13,3.7.13,5.46.03.6-.52,1.21-1.11,1.8-1.76-1.7.03-3.51-.07-5.36-.25-.62.7-1.25,1.37-1.89,1.98h0ZM63.91,93.7c-.48.58-.97,1.13-1.47,1.63,1.46-.17,2.9-.41,4.29-.74.51-.41,1.02-.86,1.5-1.34-1.41.22-2.86.37-4.33.45h0ZM47.16,94.43c1.88.41,3.76.71,5.6.9.7-.61,1.4-1.29,2.09-2.02-1.87-.25-3.79-.61-5.72-1.08-.65.78-1.3,1.51-1.96,2.19h0ZM29.49,91.43c1.92,1.02,3.89,1.93,5.87,2.72.3-.25.62-.53.95-.84.2-.19.4-.39.61-.6-2.04-.83-4.07-1.79-6.06-2.86-.48.57-.94,1.1-1.37,1.58h0ZM39.4,92.15c2.03.75,4.09,1.39,6.13,1.9.7-.68,1.38-1.41,2.06-2.21-2.09-.57-4.18-1.25-6.24-2.05-.68.86-1.33,1.65-1.95,2.35h0ZM70.61,92.8c-.28.33-.57.64-.86.95.81-.27,1.59-.56,2.35-.89l.67-.3c.16-.15.33-.31.5-.47-.87.27-1.76.5-2.67.71h0ZM21.82,89.6c1.19.85,2.43,1.65,3.71,2.4l.86.49c.27-.22.53-.46.8-.71-1.62-.92-3.22-1.93-4.77-3l-.59.82h0ZM57.7,92.19c1.9.15,3.73.18,5.49.13.76-.96,1.51-2.03,2.24-3.18-1.74.03-3.54-.07-5.36-.25-.77,1.18-1.56,2.29-2.38,3.31h0ZM67.15,89.09c-.67,1.12-1.37,2.17-2.07,3.12,1.62-.13,3.21-.36,4.74-.68.74-.89,1.45-1.87,2.13-2.93-1.56.25-3.17.42-4.81.5h0ZM50.11,91c1.99.46,3.96.8,5.88,1.02.85-1.02,1.69-2.13,2.49-3.33-1.98-.26-3.97-.64-5.95-1.12-.82,1.24-1.63,2.39-2.43,3.43h0ZM31.79,88.74c2.03,1.07,4.1,2.03,6.18,2.86.62-.69,1.29-1.48,1.99-2.36-2.09-.86-4.18-1.85-6.23-2.95-.68.88-1.33,1.7-1.94,2.45h0ZM73.86,88.23c-.57.97-1.17,1.88-1.79,2.74,1.18-.33,2.31-.72,3.4-1.16.7-.81,1.36-1.66,1.99-2.55-1.16.38-2.36.7-3.59.97h0ZM23.24,87.62c1.59,1.1,3.26,2.14,4.96,3.1.44-.48.9-1,1.38-1.57-1.75-.99-3.47-2.06-5.14-3.21l-1.2,1.68h0ZM42.25,88.61c2.09.79,4.22,1.47,6.33,2.02.82-1.04,1.66-2.19,2.48-3.43-2.11-.57-4.23-1.27-6.32-2.08-.86,1.26-1.69,2.43-2.49,3.49h0ZM16.17,84.88l.29.28c1.32,1.26,2.73,2.46,4.21,3.59l.58-.8c-1.67-1.21-3.29-2.51-4.84-3.89-.09.28-.17.56-.24.82h0ZM79.72,86.42c-.43.69-.88,1.37-1.35,2.01,1.02-.55,1.98-1.16,2.89-1.82.35-.45.72-.93,1.08-1.43-.84.44-1.71.86-2.62,1.23h0ZM34.61,85.13c2.06,1.1,4.16,2.08,6.26,2.94.8-1.05,1.64-2.22,2.51-3.5-2.09-.87-4.17-1.85-6.2-2.94-.89,1.25-1.75,2.42-2.57,3.5h0ZM25.27,84.79c1.7,1.17,3.46,2.26,5.24,3.25.62-.75,1.27-1.57,1.95-2.45-1.83-1.03-3.63-2.16-5.36-3.35l-1.83,2.55h0ZM60.92,87.53c1.84.16,3.64.22,5.38.16.8-1.37,1.58-2.89,2.34-4.52-1.67-.01-3.41-.12-5.18-.32-.81,1.65-1.66,3.21-2.54,4.67h0ZM70.23,83.17c-.73,1.6-1.48,3.09-2.24,4.45,1.69-.11,3.34-.33,4.93-.64.73-1.28,1.42-2.69,2.08-4.2-1.55.22-3.15.35-4.77.4h0ZM53.34,86.31c2.02.47,4.03.83,6,1.06.9-1.44,1.78-3.01,2.62-4.7-1.93-.28-3.89-.66-5.85-1.16-.92,1.72-1.85,3.33-2.76,4.79h0ZM16.97,82.65c1.61,1.45,3.32,2.85,5.11,4.15l1.2-1.67c-1.85-1.33-3.64-2.76-5.34-4.27-.18.31-.35.62-.51.9-.17.31-.32.61-.45.89h0ZM76.68,82.5c-.59,1.43-1.22,2.79-1.89,4.06,1.37-.35,2.7-.78,3.94-1.27.72-1.2,1.39-2.47,1.98-3.78-1.29.4-2.64.73-4.03,1h0ZM45.55,83.91c2.11.8,4.23,1.49,6.33,2.04.93-1.48,1.87-3.09,2.8-4.8-2.05-.57-4.09-1.25-6.09-2.03-1.01,1.67-2.03,3.28-3.03,4.8h0ZM27.93,81.07c1.75,1.2,3.56,2.34,5.4,3.37.82-1.09,1.68-2.25,2.58-3.51-1.85-1.05-3.68-2.19-5.44-3.4l-2.54,3.54h0ZM82.54,80.87c-.49,1.19-1.03,2.34-1.61,3.44,1.1-.55,2.16-1.16,3.15-1.83.55-.96,1.04-1.94,1.49-2.96-.97.5-1.99.95-3.03,1.35h0ZM18.67,79.6c1.72,1.54,3.54,3,5.43,4.36l1.83-2.55c-1.94-1.4-3.81-2.89-5.57-4.45-.62.94-1.18,1.82-1.68,2.64h0ZM11.26,79.32l1.26,1.6c.82.99,1.64,1.92,2.49,2.79.07-.23.16-.47.25-.7-1.39-1.3-2.71-2.66-3.95-4.06-.02.13-.03.25-.05.37h0ZM38.01,80.46c2.01,1.08,4.09,2.05,6.18,2.91,1-1.51,2.02-3.12,3.05-4.8-2.02-.84-4.02-1.78-5.98-2.83-1.12,1.67-2.21,3.24-3.25,4.72h0ZM64.11,81.51c1.67.17,3.31.26,4.89.26h.29c.67-1.51,1.33-3.14,1.96-4.85.11-.31.22-.61.33-.92-1.63,0-3.32-.08-5.06-.26-.77,2.04-1.58,3.98-2.41,5.77h0ZM73.12,75.96c-.17.48-.34.96-.52,1.44-.56,1.51-1.14,2.96-1.73,4.32,1.64-.07,3.23-.23,4.76-.49.49-1.23.96-2.55,1.41-3.93.19-.59.37-1.17.54-1.76-1.46.22-2.96.35-4.47.41h0ZM11.7,77.23c1.3,1.53,2.7,3.01,4.17,4.4.09-.18.18-.36.29-.55.21-.39.44-.79.69-1.21-1.57-1.46-3.06-2.98-4.44-4.53-.3.69-.53,1.31-.71,1.9h0ZM56.78,80.23c1.97.48,3.92.85,5.82,1.1.86-1.82,1.68-3.75,2.44-5.77-1.82-.24-3.66-.59-5.49-1.02-.92,1.99-1.85,3.9-2.77,5.69h0ZM79.16,75.29c-.23.82-.48,1.63-.74,2.45-.35,1.08-.72,2.15-1.12,3.19,1.43-.31,2.82-.7,4.14-1.16.67-1.73,1.24-3.56,1.69-5.47-1.26.4-2.59.73-3.97,1h0ZM87.59,78.37c-.26.68-.53,1.35-.83,2.01.65-.59,1.27-1.2,1.84-1.84.23-.42.47-.86.69-1.32-.55.41-1.12.79-1.7,1.16h0ZM21.16,75.76c1.76,1.57,3.65,3.08,5.6,4.49l2.54-3.54c-1.95-1.4-3.83-2.93-5.62-4.53-.92,1.27-1.76,2.47-2.52,3.59h0ZM49.32,77.88c2.01.77,4.04,1.44,6.03,1.98.91-1.74,1.85-3.64,2.78-5.68-1.87-.5-3.78-1.11-5.68-1.82-1.06,1.93-2.11,3.78-3.14,5.52h0ZM31.3,76.38c1.79,1.23,3.6,2.36,5.45,3.39,1.04-1.47,2.12-3.04,3.25-4.72-1.83-1.02-3.64-2.14-5.37-3.32l-3.33,4.65h0ZM84.73,73.74c-.39,1.83-.9,3.6-1.5,5.31,1.1-.48,2.17-1.02,3.18-1.63.57-1.59,1.04-3.28,1.39-5.02-.98.5-2.01.95-3.08,1.34h0ZM13.07,73.92c1.39,1.61,2.91,3.18,4.52,4.7.5-.82,1.07-1.7,1.69-2.63-1.63-1.51-3.19-3.11-4.66-4.76-.61.97-1.12,1.87-1.55,2.69h0ZM9.38,76.65c.07.11.14.22.21.32l.49.71s.02-.08.03-.13c-.25-.3-.49-.6-.74-.91h0ZM42.05,74.55c1.96,1.04,3.95,1.98,5.92,2.79,1.03-1.74,2.08-3.59,3.14-5.5-1.9-.77-3.79-1.64-5.62-2.59-1.18,1.86-2.33,3.63-3.44,5.31h0ZM89.44,71.51c-.27,1.59-.64,3.14-1.08,4.62.77-.57,1.5-1.17,2.17-1.81.51-1.39.91-2.85,1.21-4.35-.73.54-1.5,1.05-2.3,1.53h0ZM7.28,71.26c1.02,1.61,2.14,3.17,3.34,4.66.21-.57.46-1.18.75-1.8-1.28-1.53-2.47-3.1-3.55-4.71-.09.24-.17.47-.25.7-.12.36-.22.73-.28,1.14h0ZM24.52,71.01c1.77,1.61,3.65,3.13,5.6,4.54l3.32-4.64c-1.94-1.38-3.8-2.85-5.55-4.37-1.21,1.57-2.34,3.06-3.38,4.47h0ZM15.42,69.98c1.46,1.67,3.02,3.28,4.66,4.81.77-1.12,1.61-2.32,2.53-3.59-1.65-1.55-3.2-3.17-4.63-4.84-.95,1.27-1.81,2.48-2.56,3.61h0ZM67.03,74.36c1.71.16,3.39.24,5.05.21.68-2.06,1.28-4.19,1.8-6.37-1.55-.02-3.14-.12-4.74-.31-.36,1.22-.74,2.45-1.14,3.69-.32.96-.64,1.89-.96,2.78h0ZM75.35,68.19c-.5,2.16-1.08,4.28-1.74,6.33,1.5-.07,2.98-.23,4.41-.47.54-2.01.98-4.08,1.33-6.17-1.3.17-2.64.27-3.99.31h0ZM60.15,73.22c1.79.42,3.61.75,5.4.97.35-.98.71-2,1.06-3.06.38-1.16.74-2.31,1.07-3.45-1.58-.24-3.18-.56-4.78-.96-.34.86-.7,1.72-1.06,2.59-.57,1.36-1.14,2.66-1.69,3.89h0ZM35.45,70.57c1.73,1.18,3.51,2.28,5.33,3.3,1.11-1.67,2.26-3.44,3.44-5.3-1.53-.84-3.05-1.75-4.55-2.73l-.56-.38-3.66,5.11h0ZM80.84,67.65c-.33,2.08-.76,4.12-1.26,6.11,1.37-.29,2.67-.65,3.9-1.07.23-1.19.43-2.4.57-3.62.09-.74.16-1.49.23-2.22-1.12.33-2.27.6-3.44.81h0ZM53.14,71.1c1.87.69,3.74,1.29,5.6,1.78.58-1.29,1.17-2.66,1.78-4.09.34-.81.67-1.62.99-2.42-1.7-.47-3.4-1.03-5.07-1.67-1.1,2.21-2.2,4.36-3.3,6.4h0ZM8.46,67.81c1.1,1.68,2.31,3.34,3.61,4.92.44-.82.97-1.71,1.57-2.64-1.37-1.62-2.64-3.31-3.81-5.02-.51.92-.97,1.82-1.37,2.73h0ZM85.76,66.35c-.07.95-.16,1.91-.28,2.88-.12.97-.26,1.93-.43,2.86,1.08-.44,2.1-.93,3.07-1.47.27-1.75.43-3.59.48-5.47-.91.45-1.86.85-2.84,1.2h0ZM93.42,68.61c-.16,1.12-.38,2.21-.65,3.28.22-.27.42-.55.62-.83.33-1.02.64-2.13.9-3.27-.28.28-.58.55-.88.82h0ZM46.25,68.04c1.81.94,3.67,1.79,5.54,2.54,1.11-2.06,2.22-4.21,3.31-6.41-1.66-.68-3.35-1.47-5.03-2.34-1.3,2.16-2.57,4.24-3.81,6.21h0ZM18.88,65.2c1.42,1.67,2.96,3.29,4.59,4.83,1.04-1.41,2.16-2.89,3.36-4.45-1.61-1.47-3.14-3-4.56-4.57-1.23,1.46-2.37,2.86-3.39,4.19h0ZM28.78,65.41c1.73,1.52,3.58,2.98,5.5,4.35l3.65-5.1c-1.84-1.29-3.6-2.67-5.26-4.11-1.38,1.68-2.68,3.3-3.9,4.86h0ZM90.05,64.37c-.02,1.8-.13,3.57-.34,5.29.83-.55,1.62-1.14,2.36-1.76.18-1.45.28-2.95.28-4.46,0-.19,0-.39,0-.59-.72.55-1.49,1.06-2.29,1.52h0ZM4.11,65.46c.63,1.38,1.35,2.75,2.13,4.1.18-.52.38-1.06.61-1.61-.89-1.41-1.7-2.83-2.43-4.25-.04.16-.08.31-.11.46l-.02.11c-.08.38-.14.78-.17,1.19h0ZM10.64,63.71c1.16,1.75,2.45,3.47,3.82,5.13.78-1.15,1.64-2.36,2.58-3.6-1.38-1.68-2.67-3.43-3.84-5.22-.96,1.25-1.82,2.49-2.56,3.69h0ZM39.95,64.3l.53.35c1.42.94,2.94,1.85,4.51,2.71,1.24-1.98,2.52-4.05,3.82-6.21-1.46-.81-2.88-1.66-4.23-2.55l-.36-.24-4.26,5.95h0ZM69.53,66.51c1.58.18,3.14.27,4.66.28.48-2.21.86-4.48,1.15-6.76-1.35-.04-2.73-.15-4.11-.33-.5,2.29-1.07,4.57-1.7,6.81h0ZM76.79,60.04c-.29,2.28-.66,4.53-1.13,6.72,1.34-.05,2.65-.16,3.9-.34.31-2.15.52-4.36.63-6.59-1.11.12-2.25.2-3.41.21h0ZM93.74,61.68c.03.59.04,1.18.04,1.75,0,1-.04,1.99-.12,2.97.39-.4.76-.81,1.12-1.23.23-1.59.35-3.21.35-4.82v-.06c-.44.48-.91.94-1.4,1.38h0ZM5.03,61.68c.73,1.56,1.58,3.13,2.52,4.67.41-.87.88-1.73,1.4-2.62-1.01-1.58-1.93-3.19-2.75-4.8-.46.92-.85,1.84-1.17,2.75h0ZM63.44,65.41c1.56.38,3.12.69,4.64.91.64-2.26,1.22-4.55,1.72-6.83-1.31-.22-2.63-.5-3.93-.83-.75,2.26-1.57,4.52-2.44,6.76h0ZM81.65,59.63c-.1,2.2-.3,4.39-.6,6.54,1.14-.22,2.25-.5,3.33-.85.08-1.44.13-2.82.13-4.13,0-.73-.01-1.45-.04-2.17-.92.25-1.86.45-2.82.61h0ZM57.07,63.42c1.63.62,3.3,1.17,4.97,1.63.87-2.23,1.69-4.5,2.45-6.77-1.44-.41-2.89-.9-4.31-1.45-.74,1.63-1.51,3.3-2.33,5.01l-.77,1.59h0ZM85.9,58.59c.03.86.05,1.73.05,2.6,0,1.19-.03,2.4-.1,3.61.96-.37,1.88-.79,2.76-1.26,0-.48-.02-.96-.03-1.46-.05-1.45-.16-2.94-.31-4.44-.76.35-1.55.66-2.37.94h0ZM23.2,59.91c1.41,1.57,2.93,3.1,4.51,4.54,1.22-1.55,2.52-3.17,3.89-4.85-1.51-1.38-2.95-2.81-4.28-4.29-1.43,1.55-2.82,3.09-4.12,4.6h0ZM14.14,58.83c1.15,1.79,2.43,3.55,3.8,5.24,1.04-1.34,2.17-2.73,3.37-4.14-1.39-1.61-2.68-3.26-3.84-4.94-1.21,1.32-2.33,2.6-3.33,3.84h0ZM33.59,59.44c1.64,1.43,3.38,2.79,5.18,4.05l4.26-5.95c-1.64-1.14-3.23-2.38-4.75-3.67-1.65,1.92-3.21,3.77-4.69,5.56h0ZM96.53,58.61c.03.59.05,1.18.05,1.75,0,.84-.03,1.69-.09,2.54l.08-.12.05.02c.02-.06.03-.12.05-.19l.07-.23.25-1.01c.1-1.01.14-2.03.14-3.02,0-.19,0-.37,0-.56-.03.04-.06.08-.09.13-.16.24-.33.47-.5.69h0ZM50.8,60.6c1.62.84,3.27,1.61,4.93,2.29l.81-1.67c.81-1.69,1.58-3.33,2.3-4.94-1.44-.6-2.9-1.29-4.33-2.04-.8,1.38-1.62,2.8-2.47,4.26-.42.71-.83,1.41-1.24,2.1h0ZM2.22,58.7l.03.17c.15.8.28,1.42.42,2.05l.49,1.93c.09-.34.2-.71.33-1.09-.46-1.01-.88-2.03-1.27-3.06h0ZM89.65,56.95c.19,1.69.31,3.4.37,5.09,0,.22.01.45.02.67.79-.5,1.54-1.05,2.23-1.64-.05-.86-.12-1.74-.23-2.65-.11-.93-.24-1.84-.39-2.74-.63.46-1.3.88-2,1.26h0ZM7.04,57.38c.8,1.67,1.73,3.35,2.75,4.99.77-1.19,1.64-2.41,2.6-3.64-1.04-1.68-1.99-3.41-2.82-5.15-.95,1.26-1.8,2.52-2.53,3.79h0ZM45.04,57.2l.33.22c1.34.88,2.74,1.72,4.16,2.51.42-.7.84-1.4,1.25-2.12.85-1.45,1.67-2.86,2.46-4.23-1.25-.7-2.49-1.45-3.69-2.23l-.21-.15-4.3,6h0ZM2.51,54.99c.45,1.6,1.02,3.23,1.7,4.84.35-.83.76-1.67,1.21-2.51-.73-1.57-1.36-3.16-1.9-4.75-.41.82-.75,1.63-1.01,2.42h0ZM92.93,54.68c.23,1.24.4,2.42.54,3.58.06.52.12,1.04.16,1.56.52-.53,1-1.08,1.44-1.65-.1-1.62-.33-3.27-.68-4.9-.45.49-.94.96-1.46,1.41h0ZM18.47,53.92c1.16,1.68,2.43,3.32,3.78,4.9,1.31-1.52,2.69-3.06,4.12-4.59-1.27-1.48-2.47-3.03-3.57-4.61-1.55,1.46-3,2.91-4.33,4.3h0ZM77.47,50.98c-.07,2.58-.24,5.15-.51,7.63,1.16-.02,2.25-.1,3.3-.22.02-.78.04-1.55.04-2.32,0-1.73-.06-3.48-.18-5.21-.88.08-1.77.12-2.66.12h0ZM71.53,58.31c1.35.17,2.68.28,3.98.31.28-2.49.45-5.07.52-7.67-1.04-.05-2.1-.15-3.16-.29-.36,2.54-.81,5.11-1.34,7.65h0ZM28.3,54.26c1.31,1.46,2.72,2.88,4.21,4.23,1.48-1.79,3.04-3.64,4.69-5.55-1.37-1.23-2.67-2.51-3.9-3.82-1.72,1.71-3.4,3.43-5,5.14h0ZM81.56,50.69c.12,1.81.18,3.62.18,5.39,0,.7,0,1.4-.03,2.11.93-.16,1.84-.37,2.71-.62-.12-2.38-.38-4.83-.75-7.29-.68.16-1.39.3-2.11.41h0ZM66.32,57.3c1.27.32,2.54.59,3.78.79.53-2.52.98-5.09,1.34-7.67-.97-.17-1.95-.39-2.92-.64-.66,2.5-1.4,5.02-2.21,7.51h0ZM10.56,52.33c.81,1.75,1.74,3.5,2.78,5.21.99-1.2,2.09-2.47,3.31-3.77-1.08-1.63-2.05-3.3-2.92-4.98-1.15,1.18-2.22,2.37-3.17,3.54h0ZM85.06,49.88c.37,2.41.63,4.84.77,7.22.78-.28,1.54-.6,2.27-.96-.29-2.32-.7-4.65-1.23-6.94-.59.25-1.19.47-1.81.67h0ZM60.76,55.52c1.39.54,2.79,1.01,4.17,1.4.81-2.48,1.55-5.01,2.21-7.52-1.09-.32-2.19-.7-3.3-1.12-.98,2.42-2.01,4.85-3.08,7.24h0ZM39.21,52.8c1.46,1.24,3.02,2.45,4.65,3.59l4.3-6.01c-1.4-.98-2.77-2.02-4.06-3.11-.83.93-1.68,1.88-2.55,2.86-.8.9-1.58,1.79-2.34,2.66h0ZM95.55,51.88c.36,1.48.62,2.96.8,4.45.22-.37.43-.74.63-1.13-.13-1.46-.36-2.93-.68-4.4-.09.14-.17.27-.26.4-.15.23-.31.45-.48.68h0ZM4.48,50.85c.5,1.65,1.11,3.31,1.83,4.95.75-1.22,1.62-2.45,2.58-3.67-.72-1.61-1.34-3.24-1.86-4.86-.99,1.23-1.85,2.43-2.55,3.58h0ZM88.21,48.59c.53,2.26.95,4.55,1.25,6.83.67-.4,1.31-.83,1.9-1.3-.42-2.15-.97-4.31-1.63-6.44-.49.33-1,.63-1.53.91h0ZM55.22,53.01c1.39.73,2.8,1.39,4.21,1.98,1.08-2.42,2.11-4.85,3.08-7.25-1.17-.49-2.32-1.03-3.43-1.61-1.2,2.18-2.48,4.47-3.86,6.88h0ZM23.85,48.63c1.07,1.55,2.24,3.08,3.5,4.55,1.56-1.65,3.23-3.37,4.99-5.12-1.17-1.33-2.26-2.7-3.26-4.09l-1.01.87c-1.52,1.32-2.92,2.58-4.22,3.79h0ZM90.96,46.78c.66,2.06,1.21,4.15,1.65,6.25.49-.47.95-.97,1.37-1.48l-.11-.42c-.49-1.78-1.09-3.58-1.8-5.36-.35.35-.73.69-1.12,1.01h0ZM14.79,47.73c.83,1.66,1.8,3.33,2.86,4.98,1.31-1.37,2.77-2.81,4.33-4.29-1.01-1.55-1.93-3.13-2.73-4.71-1.61,1.34-3.1,2.69-4.47,4.03h0ZM2.01,46.83c-.21.5-.4,1.01-.57,1.51l.02.2-.02,1.42c.12.86.28,1.75.47,2.65.3-.64.63-1.3,1.01-1.95-.37-1.28-.67-2.56-.91-3.83h0ZM97.32,48.94c.32,1.2.57,2.42.77,3.63.07-.2.14-.41.2-.62,0-.49.01-.95.02-1.4-.15-.86-.34-1.72-.56-2.57-.13.33-.27.65-.42.97h0ZM50.17,50.04l.18.12c1.17.76,2.38,1.49,3.6,2.18,1.37-2.41,2.66-4.71,3.85-6.89-1.01-.56-2.01-1.17-2.98-1.8l-.06-.04-4.61,6.43h0ZM34.32,48.12c1.2,1.29,2.48,2.55,3.81,3.75.76-.87,1.53-1.76,2.33-2.66.87-.98,1.72-1.94,2.55-2.87-1.19-1.06-2.33-2.16-3.39-3.28-1.03.95-2.08,1.94-3.14,2.96-.74.71-1.45,1.41-2.16,2.1h0ZM8.13,45.96c.48,1.62,1.08,3.26,1.78,4.91.96-1.14,2.01-2.29,3.15-3.43-.73-1.54-1.37-3.09-1.91-4.63-1.1,1.07-2.11,2.12-3.01,3.14h0ZM93.15,44.59c.74,1.8,1.38,3.64,1.92,5.47.27-.42.51-.85.73-1.27-.15-.55-.32-1.1-.5-1.65-.39-1.19-.85-2.4-1.38-3.59-.01.01-.02.03-.03.04-.23.35-.48.68-.74,1h0ZM77.3,42.19c.13,2.11.2,4.22.2,6.29,0,.36,0,.72,0,1.08.86,0,1.7-.04,2.52-.12-.2-2.39-.51-4.82-.92-7.26-.58.02-1.18.03-1.79,0h0ZM73.06,49.24c1.01.14,2.02.24,3,.28,0-.35,0-.7,0-1.04,0-2.08-.07-4.23-.2-6.39-.67-.06-1.36-.15-2.05-.27-.17,2.49-.42,4.97-.75,7.42h0ZM80.54,42.07c.41,2.41.71,4.82.91,7.2.67-.1,1.33-.24,1.99-.4-.4-2.3-.91-4.65-1.54-7-.44.08-.9.15-1.37.2h0ZM45.05,46.21c1.25,1.05,2.57,2.07,3.94,3.02l4.61-6.42c-1.1-.77-2.17-1.58-3.19-2.43-1.7,1.82-3.49,3.77-5.35,5.84h0ZM68.88,48.41c.9.23,1.83.44,2.76.61.33-2.5.58-5.01.74-7.47-.62-.14-1.23-.29-1.84-.46-.49,2.45-1.04,4.91-1.66,7.32h0ZM3.12,44.61c.19,1.44.47,2.91.84,4.39.74-1.1,1.6-2.23,2.57-3.38-.42-1.51-.76-3.03-1.01-4.53-.94,1.17-1.74,2.35-2.41,3.51h0ZM83.3,41.54c.61,2.31,1.13,4.64,1.53,6.93.58-.19,1.16-.41,1.71-.66-.56-2.22-1.23-4.46-2.02-6.67-.39.15-.8.28-1.22.4h0ZM64.36,46.96c1.04.4,2.09.76,3.13,1.07.62-2.44,1.18-4.92,1.66-7.37-.71-.23-1.43-.5-2.14-.79-.82,2.32-1.71,4.7-2.65,7.08h0ZM20.4,42.78c.79,1.57,1.68,3.14,2.66,4.65,1.26-1.17,2.61-2.39,4.07-3.65l1.14-.98c-.91-1.35-1.74-2.72-2.48-4.09-.62.44-1.25.9-1.87,1.36-1.25.92-2.42,1.83-3.51,2.71h0ZM85.84,40.57c.78,2.17,1.45,4.38,2.02,6.59.5-.27.97-.57,1.42-.89-.71-2.09-1.53-4.18-2.47-6.24-.31.19-.63.37-.97.53h0ZM30.18,43.04c.98,1.37,2.05,2.72,3.19,4.01.69-.68,1.39-1.36,2.11-2.05,1.08-1.03,2.14-2.03,3.18-3-1-1.12-1.95-2.29-2.83-3.47-1.92,1.46-3.81,2.97-5.65,4.51h0ZM94.8,42.03c.73,1.55,1.36,3.13,1.86,4.67,0,.02,0,.03.01.05.13-.38.25-.76.36-1.15-.16-.47-.33-.95-.52-1.42-.38-1-.83-2-1.32-3-.12.29-.25.57-.39.85h0ZM59.76,44.88c1.07.55,2.16,1.07,3.27,1.54.95-2.39,1.84-4.77,2.66-7.1-.78-.35-1.57-.74-2.35-1.15-1.09,2.09-2.28,4.32-3.58,6.71h0ZM12.29,41.73c.51,1.54,1.13,3.1,1.85,4.65,1.38-1.33,2.88-2.67,4.48-3.99-.7-1.49-1.31-3.01-1.82-4.53-1.62,1.3-3.13,2.6-4.51,3.88h0ZM88,39.19c.93,2.02,1.76,4.08,2.47,6.13.36-.32.7-.65,1.01-.99-.82-1.91-1.77-3.82-2.82-5.71-.21.19-.43.39-.65.57h0ZM40.67,42.09c1.03,1.09,2.14,2.16,3.3,3.19,1.86-2.06,3.65-4.01,5.35-5.83-.95-.83-1.85-1.71-2.71-2.6-1.93,1.64-3.92,3.4-5.93,5.24h0ZM6.77,39.64c.2,1.54.51,3.11.91,4.69.9-.99,1.89-1.99,2.96-3.01-.46-1.51-.83-3.01-1.1-4.48-1.02.94-1.95,1.88-2.78,2.8h0ZM56.13,42.78c.76.49,1.56.96,2.37,1.42,1.31-2.39,2.5-4.64,3.59-6.73-.68-.39-1.36-.81-2.02-1.25l-4.46,6.23.52.33h0ZM89.69,37.53c1.04,1.83,1.99,3.69,2.81,5.55.06-.09.12-.18.18-.26.18-.27.35-.54.51-.82-.85-1.72-1.84-3.46-2.97-5.18-.03.04-.06.08-.09.13-.14.2-.29.39-.45.58h0ZM95.84,39.32c.64,1.17,1.21,2.37,1.71,3.57.02-.18.04-.37.05-.55-.4-1.29-.93-2.58-1.56-3.83-.06.27-.13.55-.2.81h0ZM2.88,39.06c-.02.45-.03.91-.03,1.37,0,.59.02,1.2.05,1.81.69-1.02,1.48-2.05,2.36-3.06-.13-1.17-.21-2.33-.23-3.47-.8,1.08-1.51,2.21-2.15,3.35h0ZM26.97,37.87c.71,1.34,1.52,2.68,2.4,3.99,1.84-1.54,3.73-3.05,5.64-4.49-.76-1.1-1.46-2.23-2.1-3.36-2.04,1.25-4.03,2.54-5.93,3.86h0ZM51.38,39.33c.96.79,1.98,1.57,3.05,2.32l4.47-6.24c-.75-.53-1.48-1.09-2.18-1.66-1.66,1.71-3.44,3.57-5.33,5.58h0ZM18,36.91c.48,1.51,1.08,3.03,1.77,4.54,1.03-.82,2.12-1.67,3.28-2.53.69-.51,1.39-1.01,2.08-1.5-.69-1.41-1.3-2.83-1.8-4.24-1.82,1.17-3.61,2.42-5.32,3.73h0ZM36.97,37.67c.84,1.14,1.75,2.27,2.74,3.37,1.96-1.8,3.95-3.55,5.92-5.23-.78-.87-1.52-1.76-2.21-2.67-2.19,1.46-4.36,2.98-6.45,4.54h0ZM77.2,40.77c.56.02,1.1.03,1.64,0-.42-2.26-.93-4.51-1.51-6.72-.28.01-.56.02-.84,0,.31,2.26.55,4.51.71,6.7h0ZM78.79,33.94c.58,2.24,1.08,4.5,1.5,6.73.42-.05.83-.1,1.23-.18-.63-2.22-1.37-4.45-2.19-6.64-.18.03-.36.06-.54.08h0ZM73.9,40.4c.62.11,1.24.2,1.86.26-.17-2.22-.41-4.46-.73-6.68-.31-.03-.62-.06-.93-.11,0,2.14-.08,4.33-.2,6.52h0ZM91.01,35.43c1.1,1.62,2.09,3.28,2.96,4.94.12-.29.22-.58.32-.88-.88-1.56-1.9-3.12-3.03-4.63-.08.2-.16.39-.25.58h0ZM10.81,35.7c.23,1.49.57,3.01,1.01,4.52,1.31-1.19,2.74-2.4,4.26-3.62l.26-.2c-.42-1.43-.75-2.86-.98-4.26-.2.14-.4.28-.6.43-1.43,1.05-2.76,2.11-3.95,3.13h0ZM80.75,33.53c.82,2.21,1.55,4.43,2.17,6.64.39-.11.76-.23,1.11-.36-.82-2.17-1.74-4.33-2.77-6.43-.17.06-.34.11-.52.16h0ZM70.81,39.69c.55.15,1.1.3,1.66.42.12-2.16.19-4.34.19-6.49-.27-.06-.55-.12-.83-.19-.29,2.06-.63,4.16-1.03,6.25h0ZM67.48,38.54c.65.26,1.3.5,1.94.72.39-2.07.72-4.16,1.01-6.21-.35-.11-.7-.23-1.05-.35-.58,1.9-1.22,3.86-1.9,5.85h0ZM82.6,32.82c1.02,2.11,1.94,4.26,2.75,6.4.29-.15.58-.32.85-.49-.98-2.04-2.08-4.08-3.29-6.07-.1.06-.21.11-.32.17h0ZM47.7,35.92c.83.86,1.7,1.69,2.59,2.48,1.89-2.01,3.67-3.87,5.33-5.58-.65-.57-1.28-1.17-1.89-1.78-2,1.56-4.03,3.2-6.04,4.89h0ZM64,36.91c.7.37,1.42.73,2.16,1.06.68-1.99,1.32-3.94,1.88-5.81-.44-.19-.89-.39-1.33-.61-.81,1.64-1.72,3.43-2.71,5.35h0ZM84.12,31.88c1.19,1.98,2.28,3.98,3.25,5.99.19-.16.37-.33.55-.51-1.13-1.91-2.37-3.78-3.68-5.57-.04.03-.08.07-.12.1h0ZM6.49,33.86c-.02.42-.03.83-.03,1.25,0,.86.04,1.75.11,2.65.84-.88,1.75-1.75,2.71-2.6-.18-1.34-.27-2.66-.28-3.95-.89.86-1.73,1.75-2.51,2.66h0ZM91.79,33.18c1.1,1.4,2.1,2.84,2.99,4.29.05-.32.1-.66.13-.99-.84-1.37-1.83-2.72-2.97-4.05-.04.25-.09.5-.15.75h0ZM24.57,32.4c.48,1.39,1.06,2.79,1.75,4.19,1.93-1.33,3.91-2.62,5.91-3.84-.63-1.23-1.18-2.46-1.64-3.69-2.08,1.04-4.1,2.16-6.01,3.34h0ZM34.13,33.27c.61,1.09,1.29,2.18,2.02,3.24,2.09-1.55,4.25-3.07,6.44-4.53-.57-.82-1.11-1.66-1.6-2.51-2.33,1.2-4.64,2.48-6.85,3.8h0ZM60.9,35.07c.61.4,1.23.78,1.84,1.14.99-1.91,1.89-3.69,2.7-5.32-.37-.2-.73-.42-1.09-.64l-3.45,4.81h0ZM85.29,30.79c1.3,1.77,2.52,3.58,3.62,5.41.01-.02.03-.04.04-.06.14-.2.27-.41.39-.62-1.16-1.65-2.46-3.31-3.88-4.94-.06.07-.11.14-.17.2h0ZM16.67,31.22c.2,1.39.5,2.81.89,4.24,1.7-1.29,3.47-2.52,5.29-3.67-.4-1.28-.71-2.55-.94-3.79-1.8.99-3.56,2.07-5.24,3.22h0ZM5.28,31.01c-.07.18-.15.35-.22.53-.17.43-.31.77-.44,1.13-.17.45-.3.8-.42,1.15-.15.44-.27.79-.38,1.13.4-.55.82-1.09,1.26-1.62.04-.78.11-1.55.21-2.31h0ZM44.62,32.35c.65.86,1.36,1.71,2.1,2.53,2.01-1.69,4.03-3.33,6.03-4.88-.5-.55-.99-1.13-1.47-1.73-2.23,1.29-4.47,2.65-6.66,4.07h0ZM57.71,32.72c.65.53,1.32,1.04,2.01,1.53l3.42-4.79c-.43-.29-.85-.6-1.27-.93-1.29,1.27-2.68,2.66-4.17,4.18h0ZM86.29,29.35c1.35,1.52,2.6,3.1,3.75,4.68.07-.18.12-.36.18-.53-1.17-1.44-2.47-2.88-3.87-4.27-.02.04-.04.08-.06.12h0ZM10.46,29.87c-.01.35-.02.69-.02,1.04,0,1.01.05,2.05.16,3.1,1.03-.86,2.14-1.73,3.31-2.59.41-.3.82-.59,1.23-.88-.14-1.23-.22-2.46-.22-3.64,0-.12,0-.24,0-.36-1.6,1.03-3.09,2.15-4.46,3.33h0ZM92.11,30.47c1.05,1.14,2,2.31,2.85,3.5,0-.13-.02-.27-.03-.4-.79-1.21-1.74-2.4-2.83-3.54,0,.1,0,.2,0,.29v.14h0ZM76.29,32.64c.23,0,.45,0,.67,0-.46-1.64-.96-3.25-1.48-4.81,0,0-.01,0-.02,0,.32,1.61.6,3.22.83,4.8h0ZM77.4,29.13c.36,1.12.7,2.27,1.02,3.43.13-.02.26-.03.39-.05-.44-1.13-.92-2.26-1.41-3.37h0ZM74.1,32.44c.24.04.48.07.72.09-.24-1.57-.52-3.16-.84-4.74,0,0,0,0-.01,0,.08,1.54.12,3.1.13,4.65h0ZM78.72,28.55c.53,1.2,1.04,2.42,1.52,3.66.13-.04.26-.07.39-.12-.6-1.19-1.24-2.37-1.91-3.54h0ZM72.03,32.02c.21.05.42.1.63.15-.02-1.56-.07-3.09-.14-4.56-.13,1.43-.29,2.9-.49,4.41h0ZM31.88,28.43c.44,1.19.97,2.39,1.58,3.58,2.27-1.35,4.56-2.61,6.83-3.78-.51-.96-.95-1.92-1.33-2.85-2.46.95-4.84,1.97-7.08,3.04h0ZM54.88,30.16c.55.56,1.14,1.1,1.75,1.64,1.48-1.51,2.86-2.89,4.15-4.16-.38-.33-.75-.66-1.1-1.01-1.63,1.17-3.21,2.33-4.79,3.54h0ZM86.93,27.8c1.31,1.27,2.53,2.58,3.66,3.91.03-.23.05-.47.06-.7-1.12-1.17-2.34-2.32-3.66-3.42-.02.07-.04.14-.06.22h0ZM69.79,31.33c.28.1.56.2.83.29.19-1.47.35-2.95.48-4.41-.05-.02-.1-.03-.15-.05-.33,1.27-.72,2.66-1.16,4.18h0ZM80.88,29.48c.37.69.73,1.38,1.09,2.07.07-.03.13-.07.2-.1-.41-.66-.84-1.31-1.28-1.97h0ZM7.23,28.31c-.25,1.03-.43,2.11-.56,3.2.75-.79,1.54-1.56,2.38-2.3.06-1.08.18-2.14.36-3.16-.77.72-1.49,1.48-2.17,2.26h0ZM42.26,28.83c.46.79.97,1.58,1.52,2.36,2.18-1.42,4.41-2.79,6.63-4.07-.38-.52-.73-1.04-1.06-1.56-2.4,1.02-4.78,2.11-7.09,3.27h0ZM23.25,27.28c.21,1.23.5,2.47.87,3.72,1.89-1.14,3.9-2.24,5.99-3.29-.36-1.09-.65-2.17-.87-3.23-2.07.85-4.08,1.79-5.99,2.8h0ZM67.34,30.28c.37.18.74.35,1.11.51.44-1.51.82-2.89,1.15-4.15-.14-.06-.28-.12-.42-.19-.55,1.16-1.16,2.44-1.85,3.83h0ZM91.89,27.8c.77.72,1.49,1.47,2.15,2.23l-.3-.65c-.58-.74-1.23-1.45-1.95-2.12.04.18.07.36.1.54h0ZM16.38,25.64c-.02.42-.03.85-.03,1.27,0,.89.04,1.81.13,2.72,1.67-1.11,3.41-2.16,5.2-3.13-.16-1.18-.24-2.34-.25-3.47-.38.17-.75.34-1.13.52-1.35.64-2.67,1.34-3.92,2.08h0ZM65.18,29.09c.3.18.59.35.89.52.68-1.4,1.3-2.67,1.84-3.83-.08-.05-.17-.1-.25-.15l-2.48,3.47h0ZM83.4,28.33c.34.42.67.85,1,1.28.03-.04.06-.08.09-.11-.36-.39-.72-.78-1.09-1.17h0ZM52.54,27.56c.44.54.89,1.07,1.35,1.57,1.65-1.26,3.25-2.45,4.77-3.53-.27-.29-.53-.59-.77-.89-1.76.89-3.56,1.85-5.35,2.85h0ZM87.26,25.96c1.18.95,2.29,1.94,3.33,2.96-.01-.13-.03-.27-.05-.41-1-.91-2.1-1.79-3.28-2.63,0,.03,0,.06,0,.09h0ZM62.91,27.54c.35.26.7.52,1.07.77l2.49-3.48c-.14-.11-.28-.21-.42-.32-.5.47-1.03.98-1.58,1.51-.5.48-1.02.99-1.56,1.52h0ZM11.22,24.46c-.28,1.11-.49,2.26-.62,3.44,1.37-1.1,2.84-2.13,4.39-3.08.08-1.12.23-2.22.45-3.29-1.51.9-2.93,1.88-4.22,2.94h0ZM40.31,24.89c.36.89.78,1.8,1.26,2.7,2.28-1.14,4.64-2.23,7.04-3.25-.34-.61-.66-1.22-.93-1.82-2.52.71-5,1.5-7.37,2.37h0ZM30.59,23.94c.2,1.02.47,2.07.82,3.14,2.26-1.08,4.63-2.09,7.06-3.02-.29-.84-.53-1.69-.72-2.52-2.43.69-4.83,1.5-7.15,2.4h0ZM85.01,26.01c.24.22.48.43.72.65,0-.03.01-.06.01-.08-.24-.19-.48-.37-.73-.56h0ZM60.85,25.78c.3.29.61.57.94.85,1.15-1.12,2.21-2.14,3.17-3.06-.12-.11-.23-.22-.34-.33-.67.43-1.37.9-2.11,1.4-.53.36-1.09.74-1.66,1.14h0ZM50.69,25.01c.3.47.63.94.97,1.41,1.74-.98,3.54-1.94,5.34-2.86-.18-.25-.35-.5-.52-.75-1.95.69-3.9,1.43-5.79,2.2h0ZM87.21,24.1c1.01.68,1.96,1.38,2.84,2.1-.05-.17-.1-.34-.15-.5-.84-.62-1.75-1.22-2.71-1.79,0,.06.02.12.02.19h0ZM22.88,22.4c0,.16,0,.33,0,.5,0,.95.06,1.92.17,2.89,1.92-.99,3.91-1.91,5.94-2.73-.14-.95-.23-1.9-.26-2.83-2,.65-3.97,1.37-5.84,2.17h0ZM69.79,25.16c.06.03.11.05.17.08.08-.32.16-.63.23-.95-.13.28-.26.57-.4.87h0ZM10.51,21.86c-.15.16-.3.32-.45.48l-1.19,1.81c-.23.36-.44.7-.65,1.05.55-.53,1.13-1.04,1.72-1.54.16-.61.35-1.21.57-1.81h0ZM59.2,24.05c.2.24.41.47.63.71,1.38-.96,2.65-1.82,3.81-2.59-.04-.05-.08-.1-.12-.15-1.33.59-2.77,1.27-4.33,2.03h0ZM17.13,20.57c-.28,1.08-.48,2.2-.61,3.34,1.02-.58,2.08-1.12,3.15-1.64.6-.28,1.2-.56,1.8-.82.06-1.03.18-2.04.37-3.03-1.66.65-3.25,1.36-4.71,2.14h0ZM49.09,22.13c.26.55.55,1.1.86,1.65,1.92-.79,3.86-1.54,5.79-2.22-.17-.3-.32-.6-.46-.9-.57.12-1.15.24-1.74.37-1.43.32-2.92.68-4.45,1.09h0ZM67.1,23.52c.07.05.13.1.2.15l.7-.99c-.29.27-.59.54-.9.83h0ZM39.13,21.16c.18.8.41,1.6.68,2.4,2.39-.87,4.84-1.66,7.3-2.36-.22-.56-.41-1.12-.58-1.66-2.52.44-5.01.99-7.41,1.63h0ZM86.79,22.06c.77.41,1.5.84,2.2,1.28-.07-.15-.13-.29-.2-.43-.64-.39-1.34-.76-2.08-1.11.03.09.05.17.08.26h0ZM57.88,22.32c.13.2.27.39.42.59,1.48-.73,2.96-1.43,4.4-2.07,0,0,0-.01-.01-.02-1.6.46-3.21.97-4.8,1.51h0ZM65.84,22.45c.05.05.1.1.15.15.28-.26.54-.51.8-.75-.32.2-.64.4-.96.6h0ZM30.16,19.78c.01.94.08,1.84.2,2.72,2.26-.87,4.65-1.67,7.11-2.37-.12-.71-.2-1.42-.24-2.11-2.41.48-4.78,1.06-7.07,1.75h0ZM13.09,19.51c-.43.83-.81,1.7-1.15,2.6,1.23-.89,2.55-1.72,3.95-2.49.25-.9.56-1.78.9-2.64-1.32.76-2.56,1.61-3.71,2.52h0ZM83.96,20.69c.33.14.65.29.97.44-.01-.03-.03-.07-.04-.1-.3-.12-.61-.23-.93-.34h0ZM56.73,20.38c.12.24.25.47.38.71,1.62-.56,3.26-1.07,4.89-1.55,0-.01-.01-.03-.02-.04-1.78.26-3.54.56-5.25.88h0ZM23.44,17.85c-.22.96-.38,1.95-.47,2.97,1.89-.77,3.82-1.47,5.77-2.08.03-.85.11-1.69.24-2.5-1.19.29-2.38.62-3.53.97-.69.21-1.35.42-2,.65h0ZM47.97,19.29c.16.51.34,1.02.54,1.52,2.02-.54,4.1-1.04,6.2-1.47-.11-.29-.2-.57-.28-.85-2.15.19-4.32.46-6.46.8h0ZM85.97,19.92c.53.21,1.04.44,1.54.68-.12-.2-.25-.39-.38-.59-.43-.18-.89-.35-1.36-.5.07.14.14.27.2.41h0ZM38.65,17.77c.03.65.1,1.32.21,1.99,2.36-.63,4.82-1.17,7.33-1.61-.1-.44-.17-.89-.23-1.33-2.45.21-4.9.53-7.31.95h0ZM73.88,19.23c.09.11.17.22.27.34l.17-.24s-.02-.01-.04-.02l.1-.24s-.06-.02-.09-.03l.07-.24c-.14-.03-.28-.06-.42-.09l.04-.25s0,0-.01,0v-.25c-.1,0-.19.01-.28.02l-.04-.25s-.06.02-.09.02l-.09-.23s-.02.01-.04.02l-.5-.72-.89-.25c0-.06.02-.11.02-.17h-.25s0-.07,0-.1l-.25.04c-.02-.09-.05-.18-.07-.27l-.24.08s-.01-.03-.02-.04l-.21.15c-.07-.12-.15-.23-.23-.36l-.21.15s-.04-.05-.06-.08l-.19.17s-.02-.02-.03-.03l-.18.24c.13.04.27.08.4.13l-.13.48c.07,0,.13.01.19.02v.66s.01.09.01.09c.05-.02.09-.03.13-.05l.1.23c.11-.06.22-.12.32-.17l.82,1.04.53.15c-.01.08-.03.17-.05.26l.25.02v.12h.13s.58-.22.58-.22c.03.05.05.11.08.17l.42-.28h0ZM82.59,18.77c.47.13.92.27,1.37.42-.04-.06-.07-.12-.11-.18-.41-.09-.83-.17-1.26-.24h0ZM55.9,18.36c.07.23.16.46.24.69,1.8-.35,3.6-.66,5.36-.91,0-.01,0-.02,0-.03-1.87.03-3.75.12-5.6.26h0ZM18.88,15.89c-.45.9-.85,1.84-1.18,2.81,1.44-.7,2.96-1.35,4.54-1.92.24-.89.54-1.77.9-2.61-1.49.5-2.92,1.08-4.25,1.73h0ZM30.49,15.88c-.15.78-.25,1.59-.3,2.42,2.27-.67,4.62-1.23,7-1.69.01-.64.05-1.27.13-1.89-2.31.28-4.6.68-6.83,1.17h0ZM84.76,17.76c.32.08.63.16.94.25-.15-.19-.31-.39-.47-.58-.26-.06-.53-.12-.8-.16.11.16.23.33.33.5h0ZM47.4,16.71c.05.39.13.8.21,1.2,2.12-.34,4.3-.62,6.48-.82-.03-.19-.06-.39-.09-.58h-.6c-2.03,0-4.05.07-6.01.2h0ZM80.64,17.1c.72.07,1.41.15,2.08.26-.07-.09-.14-.18-.21-.28-.62-.03-1.24-.02-1.87.02h0ZM55.46,16.53c.02.15.05.29.07.44,1.4-.11,2.81-.19,4.21-.24-1.42-.1-2.86-.17-4.29-.2h0ZM18.43,13.72c-.9.54-1.77,1.11-2.61,1.72l-.12.13c-.22.27-.43.52-.62.78.88-.55,1.79-1.06,2.74-1.54.2-.37.41-.74.62-1.1h0ZM38.8,14.54c-.09.59-.14,1.19-.16,1.79,2.38-.41,4.8-.73,7.2-.93,0-.18-.01-.36-.01-.53,0-.24,0-.48.02-.71-2.38.02-4.75.15-7.05.39h0ZM24.97,13.59c-.42.83-.77,1.71-1.07,2.61.37-.12.74-.24,1.11-.35,1.36-.41,2.8-.8,4.27-1.14.19-.77.43-1.53.72-2.26-.73.13-1.47.28-2.21.44-.98.22-1.92.45-2.82.71h0ZM83.23,15.7c.18.01.35.03.52.05-.28-.3-.56-.59-.84-.86-.12,0-.24.02-.37.03.24.26.47.52.69.79h0ZM79.5,15.57c.05.06.1.12.15.18.54-.05,1.08-.08,1.62-.09-.14-.15-.29-.3-.44-.45-.42.1-.87.22-1.34.36h0ZM55.36,15.11c1.51.03,3.02.1,4.52.21-1.48-.25-2.98-.47-4.5-.64,0,.14-.02.29-.02.43h0ZM47.29,14.16c-.01.24-.02.47-.02.71,0,.14,0,.28,0,.42,2.04-.14,4.1-.21,6.14-.21h.51c0-.19.01-.38.03-.56-2.2-.22-4.43-.33-6.66-.36h0ZM78.04,14.09c.13.11.25.22.37.34.41-.14.81-.26,1.2-.37-.22-.19-.44-.38-.67-.56-.3.19-.6.39-.9.59h0ZM31.67,12.17c-.32.7-.59,1.43-.81,2.18,2.22-.47,4.47-.84,6.71-1.1.13-.58.29-1.15.48-1.7-2.15.1-4.29.31-6.38.62h0ZM21.19,12.24c-.3.39-.59.78-.86,1.19-.08.12-.16.24-.24.36,1.24-.52,2.54-.98,3.89-1.38.32-.59.66-1.16,1.04-1.72-1.31.45-2.59.97-3.82,1.56h0ZM80.28,12.75c.35.3.69.6,1.02.91.09-.02.17-.03.26-.05-.36-.32-.72-.64-1.1-.95-.06.03-.12.05-.17.08h0ZM55.61,13.27c.9.1,1.8.22,2.7.36-.87-.22-1.75-.42-2.63-.6-.02.08-.05.16-.07.24h0ZM47.47,12.74c2.2.03,4.45.15,6.7.37.03-.13.06-.25.1-.37-2.23-.42-4.43-.73-6.58-.94-.09.31-.16.62-.23.95h0ZM39.61,11.5c-.2.51-.37,1.04-.51,1.59,2.3-.22,4.62-.34,6.91-.35.06-.36.14-.71.23-1.06-2.19-.17-4.39-.23-6.63-.18h0ZM75.31,12.14c.1.05.19.11.29.17l.59-.79c-.2-.12-.4-.25-.6-.36-.09.32-.18.65-.28.98h0ZM27.32,9.98c-.38.47-.75.95-1.09,1.45-.09.14-.19.28-.27.42.5-.12,1.01-.24,1.53-.36,1.08-.23,2.15-.44,3.22-.61.32-.63.67-1.22,1.03-1.77-1.5.2-2.98.49-4.42.87h0ZM78.25,11.17c.28.2.56.4.82.6.05-.03.11-.06.16-.08-.29-.22-.58-.44-.88-.65l-.1.14h0ZM73.64,11.31c.12.05.24.11.37.16.1-.35.2-.69.28-1.03-.22-.11-.45-.22-.67-.33.02.37.02.75.02,1.12v.08h0ZM48.21,10.43c2.19.22,4.39.54,6.58.97.03-.05.05-.11.08-.16-2.13-.6-4.25-1.09-6.32-1.47-.12.21-.24.43-.34.66h0ZM57.19,10.45c.48.15.96.3,1.43.46-.44-.19-.89-.38-1.34-.56-.03.03-.07.07-.1.1h0ZM72.09,10.75s.07.02.11.03c0-.45-.03-.89-.06-1.32-.15-.06-.3-.12-.45-.18.14.47.28.96.4,1.46h0ZM33.65,8.91c-.23.29-.45.59-.66.9-.18.26-.35.53-.51.82,2.02-.27,4.09-.45,6.17-.52.21-.46.45-.9.71-1.33-1.75-.05-3.54-.02-5.28.1l-.42.03h0ZM75.92,9.71c.35.2.7.41,1.05.62l.08.05.12-.16c-.4-.27-.8-.52-1.21-.77-.01.08-.03.17-.05.25h0ZM41.09,10.06c1.86,0,3.74.08,5.61.23.11-.27.23-.53.36-.78-2.06-.33-4.09-.55-6.04-.66-.03.04-.05.08-.07.11-.24.36-.46.73-.67,1.11.28,0,.55,0,.82,0h0ZM49.43,8.49c2.09.4,4.19.91,6.26,1.51.06-.07.11-.14.17-.2-1.99-.76-3.97-1.39-5.89-1.9-.19.19-.37.39-.54.59h0ZM69.78,8.65c.18.35.37.72.54,1.1-.11-.36-.22-.71-.34-1.04-.07-.02-.13-.04-.2-.06h0ZM27.24,7.92c-1.04.32-2.06.69-3.05,1.09-.25.23-.51.47-.77.72,1.01-.38,2.04-.72,3.08-1.01.24-.28.49-.55.74-.81h0ZM73.48,8.48c.37.16.74.33,1.1.52.02-.11.03-.22.04-.33-.4-.22-.81-.44-1.22-.65.02.15.05.31.07.47h0ZM51.27,6.78c1.9.54,3.82,1.18,5.72,1.93.03-.02.06-.05.09-.07-1.79-.83-3.59-1.56-5.36-2.16-.16.1-.31.2-.45.31h0ZM42.08,7.49c1.9.14,3.83.38,5.77.71.17-.24.35-.47.54-.7-1.8-.42-3.61-.73-5.38-.93-.32.29-.63.6-.92.93h0ZM30.21,7.14c-.39.31-.77.63-1.13.97,1.25-.25,2.54-.44,3.83-.57.29-.34.6-.68.91-1-1.22.14-2.43.34-3.62.6h0ZM71.08,7.56c.28.09.56.19.83.29-.04-.22-.09-.43-.15-.63-.34-.15-.68-.3-1.03-.45.12.25.23.52.34.79h0ZM53.45,5.58c1.68.62,3.38,1.34,5.05,2.16.06-.03.11-.06.17-.08-1.52-.89-3.05-1.67-4.58-2.33-.22.08-.43.16-.64.25h0ZM36.16,6.35c-.41.33-.79.69-1.16,1.05,1.76-.09,3.56-.09,5.31-.01.27-.34.55-.68.85-.99-.97-.07-1.94-.11-2.89-.11h-.07c-.3,0-.54,0-.81,0-.42,0-.83.03-1.23.05h0ZM68.82,6.94c.15.03.31.07.46.11-.19-.37-.38-.73-.59-1.05-.21-.07-.43-.15-.64-.21.26.37.52.75.76,1.15h0ZM56.22,4.74c1.36.66,2.74,1.42,4.12,2.26,0,0,.02,0,.02,0-1.26-.88-2.53-1.66-3.78-2.32-.12.02-.25.05-.37.07h0ZM66.54,6.56c.11.01.22.03.33.04-.38-.53-.77-1.02-1.17-1.47-.2-.05-.4-.09-.61-.13.49.49.97,1.01,1.44,1.56h0ZM59.03,4.42c1.08.65,2.15,1.38,3.21,2.17.03,0,.07,0,.1-.01-.94-.81-1.89-1.54-2.84-2.17-.16,0-.31,0-.47.01h0ZM62.08,4.52c.75.59,1.5,1.23,2.24,1.92h.14s.03,0,.04,0c-.66-.69-1.33-1.32-2-1.87-.14-.02-.28-.03-.42-.05h0ZM44.57,5.34c1.63.24,3.3.57,4.98.98.15-.13.31-.26.47-.39-1.55-.46-3.11-.83-4.64-1.11-.28.16-.55.34-.81.52h0ZM36.53,4.29c-.68.04-1.37.1-2.05.18-.46.22-.92.47-1.39.74.83-.11,1.67-.19,2.52-.25.3-.23.61-.46.92-.67h0ZM38.26,4.87h0c1.38,0,2.82.07,4.27.22.24-.2.49-.39.75-.58-1.18-.15-2.34-.24-3.49-.27-.13,0-.26,0-.39,0-.39.2-.77.42-1.15.64h0ZM47.45,3.8c1.37.31,2.74.68,4.1,1.13.22-.12.44-.24.67-.35-1.27-.47-2.54-.86-3.77-1.16-.34.12-.67.24-.99.38h0ZM51.11,2.69c1.01.32,2.02.69,3.03,1.12.13-.04.26-.08.39-.12-.99-.43-1.98-.8-2.96-1.09-.16.03-.31.06-.47.09h0ZM42.38,2.98c.91.09,1.82.21,2.74.36.26-.14.53-.28.8-.41-.86-.13-1.71-.21-2.55-.25-.33.1-.66.2-.98.31h0ZM54.77,2.24c.69.29,1.38.61,2.07.96.17-.02.34-.05.51-.07-.68-.35-1.35-.66-2.03-.91-.18,0-.36,0-.54.02h0ZM59.93,2.99c.1,0,.2,0,.31,0-.46-.26-.92-.49-1.37-.69-.02,0-.05,0-.08,0,.38.22.76.45,1.15.69h0Z"/>
  </g>
</svg>